<?xml version="1.0" encoding="UTF-8"?>
<!DOCTYPE svg PUBLIC "-//W3C//DTD SVG 1.1//EN" "http://www.w3.org/Graphics/SVG/1.1/DTD/svg11.dtd">
<!-- Creator: CorelDRAW 2021 (64-Bit) -->
<svg xmlns="http://www.w3.org/2000/svg" xml:space="preserve" width="210mm" height="297mm" version="1.1" style="shape-rendering:geometricPrecision; text-rendering:geometricPrecision; image-rendering:optimizeQuality; fill-rule:evenodd; clip-rule:evenodd"
viewBox="0 0 21000 29700"
 xmlns:xlink="http://www.w3.org/1999/xlink"
 xmlns:xodm="http://www.corel.com/coreldraw/odm/2003">
 <defs>
  <style type="text/css">
   <![CDATA[
    .fil3 {fill:#0F50C8;fill-rule:nonzero}
    .fil0 {fill:#72CFF0;fill-rule:nonzero}
    .fil2 {fill:#9DDCF6;fill-rule:nonzero}
    .fil5 {fill:#DF2733;fill-rule:nonzero}
    .fil6 {fill:#E8F7FD;fill-rule:nonzero}
    .fil1 {fill:#FEFFFF;fill-rule:nonzero}
    .fil4 {fill:white;fill-rule:nonzero}
   ]]>
  </style>
 </defs>
 <g id="Слой_x0020_1">
  <metadata id="CorelCorpID_0Corel-Layer"/>
  <polygon class="fil0" points="10433.85,13990.1 10452.96,14029.79 10453.7,14044.5 10458.83,14070.96 10459.57,14095.94 10458.12,14148.85 10450.02,14201.77 10444.15,14228.23 10436.05,14279.66 10434.6,14306.12 10433.85,14360.52 10379.46,14360.52 10328.02,14358.32 10301.56,14353.91 10275.1,14348.03 10222.19,14328.93 10195.73,14317.9 10142.81,14297.31 10116.35,14285.56 10089.9,14274.53 10036.98,14248.81 10010.52,14234.84 9984.06,14223.81 9957.6,14212.06 9904.69,14191.48 9851.77,14168.7 9825.31,14155.47 9772.4,14132.69 9745.94,14123.14 9693.02,14104.03 9666.56,14093.74 9613.65,14068 9587.19,14052.57 9534.27,14023.18 9507.81,14010.69 9481.35,13995.98 9454.9,13984.23 9401.98,13957.77 9375.52,13943.06 9349.06,13931.31 9322.6,13916.6 9296.15,13904.86 9243.23,13877.66 9216.77,13862.23 9190.31,13847.52 9137.4,13815.19 9084.48,13785.05 9058.02,13771.82 9005.1,13741.69 8952.19,13709.35 8899.27,13679.22 8872.81,13665.99 8819.9,13635.85 8793.44,13618.95 8740.52,13584.42 8687.6,13548.41 8661.15,13529.28 8608.23,13485.91 8583.25,13463.13 8556.79,13442.58 8542.08,13428.61 8502.4,13408.02 8511.21,13447.71 8518.56,13460.94 8537.66,13500.62 8555.31,13540.31 8500.91,13541.05 8474.46,13542.51 8423.02,13550.6 8396.56,13556.48 8370.1,13560.9 8317.19,13568.25 8264.27,13577.8 8237.81,13585.13 8184.9,13601.33 8158.44,13608.65 8131.98,13614.55 8079.06,13624.82 8026.15,13638.05 7973.23,13654.96 7946.77,13663.79 7893.85,13682.9 7867.4,13693.93 7814.48,13715.23 7788.02,13724.78 7761.56,13734.33 7735.1,13743.17 7682.19,13760.79 7655.73,13769.63 7629.27,13779.18 7602.81,13788.73 7576.35,13799.76 7523.44,13821.06 7470.52,13841.65 7444.06,13852.68 7391.15,13873.98 7338.23,13894.56 7285.31,13917.34 7258.85,13930.57 7205.94,13953.35 7153.02,13973.94 7100.1,13996.72 7073.65,14009.95 7020.73,14032.73 6967.81,14053.31 6914.9,14076.09 6888.44,14089.32 6835.52,14112.1 6782.6,14132.69 6756.15,14144.44 6729.69,14155.47 6703.23,14169.44 6650.31,14195.9 6623.85,14207.64 6597.4,14222.36 6570.94,14234.1 6518.02,14261.3 6491.56,14277.47 6465.1,14293.63 6414.38,14336.26 6372.5,14386.98 6357.79,14413.44 6346.04,14439.9 6332.81,14492.81 6327.68,14519.27 6316.65,14572.19 6312.23,14598.65 6308.55,14625.1 6306.35,14678.02 6306.35,14704.48 6306.35,14757.4 6306.35,14889.69 6306.35,14942.6 6307.1,14969.06 6308.55,14995.52 6316.65,15048.44 6322.52,15074.9 6330.62,15127.81 6332.07,15154.27 6335.01,15207.19 6338.69,15233.65 6348.98,15286.56 6357.79,15339.48 6360.75,15365.94 6369.56,15418.85 6375.44,15445.31 6383.53,15496.75 6384.99,15523.21 6385.73,15577.6 6404.83,15557.02 6405.57,15543.05 6410.71,15521.75 6411.45,15497.49 6412.19,15445.31 6409.99,15392.4 6406.31,15365.94 6396.02,15313.02 6387.93,15260.1 6386.47,15233.65 6385.73,15180.73 6385.73,15154.27 6385.73,15074.9 6385.73,15048.44 6384.99,14995.52 6383.53,14969.06 6375.44,14916.15 6369.56,14889.69 6361.47,14836.77 6360.01,14810.31 6359.27,14783.85 6359.27,14730.94 6360.01,14678.02 6361.47,14651.56 6370.3,14598.65 6385.73,14545.73 6401.15,14494.29 6405.57,14479.58 6412.19,14439.9 6451.87,14477.39 6466.59,14487.68 6493.04,14507.52 6544.48,14534.7 6597.4,14552.34 6650.31,14562.64 6676.77,14566.31 6729.69,14581 6756.15,14592.77 6809.06,14614.81 6835.52,14624.36 6861.98,14633.91 6888.44,14642.75 6941.35,14660.37 6967.81,14669.21 7020.73,14688.31 7073.65,14708.9 7100.1,14719.19 7126.56,14726.52 7179.48,14741.23 7232.4,14758.14 7285.31,14778.72 7311.77,14788.27 7338.23,14798.57 7364.69,14805.89 7391.15,14813.99 7444.06,14827.22 7470.52,14833.09 7523.44,14848.52 7576.35,14867.65 7602.81,14877.94 7655.73,14893.37 7682.19,14899.98 7708.65,14908.05 7761.56,14924.24 7788.02,14932.31 7814.48,14938.93 7867.4,14952.9 7920.31,14969.06 7946.77,14977.87 8026.15,15004.33 8079.06,15021.98 8131.98,15037.4 8184.9,15048.44 8237.81,15058.73 8264.27,15064.6 8317.19,15072.7 8343.65,15074.16 8396.56,15074.9 8423.02,15074.9 8475.94,15074.9 8528.85,15074.9 8555.31,15074.16 8581.77,15072.7 8634.69,15063.86 8661.15,15056.53 8714.06,15039.63 8740.52,15030.79 8793.44,15011.69 8819.9,15000.65 8872.81,14979.35 8925.73,14958.03 8978.65,14932.31 9005.1,14917.63 9058.02,14891.17 9084.48,14880.14 9137.4,14856.61 9163.85,14842.64 9190.31,14830.9 9216.77,14816.19 9243.23,14804.44 9269.69,14789.73 9322.6,14764.01 9349.06,14752.98 9375.52,14741.23 9428.44,14720.65 9454.9,14709.61 9507.81,14688.31 9560.73,14667.73 9613.65,14644.95 9640.1,14631.72 9693.02,14608.94 9719.48,14599.39 9772.4,14581 9825.31,14561.9 9851.77,14550.86 9904.69,14529.56 9957.6,14508.98 10010.52,14487.68 10036.98,14476.65 10063.44,14467.09 10089.9,14458.26 10142.81,14447.99 10195.73,14450.93 10220.71,14456.06 10247.16,14460.48 10261.87,14464.16 10301.56,14466.35 10261.87,14492.07 10247.16,14496.49 10220.71,14508.24 10169.27,14523.69 10142.81,14531.02 10116.35,14542.05 10089.9,14552.34 10063.44,14565.57 10010.52,14588.35 9959.09,14606.74 9932.63,14614.07 9917.92,14618.49 9934.08,14617.75 9926,14618.12 9917.69,14627.65 9917.69,14627.65 9917.69,14627.65 9917.69,14627.65 9887.85,14640.93 9878.23,14651.56 9838.54,14658.18 9823.83,14662.6 9797.37,14669.92 9745.94,14688.31 9693.02,14711.09 9666.56,14724.32 9613.65,14747.1 9560.73,14767.69 9507.81,14788.27 9481.35,14798.57 9428.44,14811.79 9403.46,14813.99 9377,14815.45 9322.6,14810.31 9282.92,14838.25 9268.21,14847.06 9216.77,14879.4 9190.31,14894.11 9163.85,14909.53 9110.94,14936.73 9084.48,14948.48 9058.02,14963.19 9005.1,14988.91 8978.65,14999.94 8952.19,15011.69 8899.27,15032.27 8847.84,15053.57 8833.12,15061.67 8793.44,15074.9 8793.44,15101.35 8846.35,15127.81 8813.28,15136.62 8802.25,15144.72 8782.4,15157.21 8744.2,15191.76 8724.35,15213.06 8688.34,15260.85 8656.73,15313.02 8642.04,15339.48 8618.52,15392.4 8600.13,15443.83 8588.39,15485 8581.77,15524.69 8560.45,15485 8556.05,15470.29 8539.89,15418.85 8531.05,15365.94 8529.59,15339.48 8531.05,15286.56 8539.15,15235.13 8545.02,15208.67 8548.7,15193.96 8555.31,15154.27 8500.91,15154.27 8474.46,15153.53 8449.48,15152.07 8396.56,15143.98 8370.1,15138.1 8317.19,15130.01 8292.21,15128.55 8265.75,15127.81 8211.35,15127.81 8231.94,15153.53 8244.43,15157.95 8278.24,15173.37 8317.19,15180.73 8317.19,15260.1 8277.5,15266.72 8236.33,15276.27 8184.9,15284.37 8131.98,15285.82 8105.52,15284.37 8052.6,15274.07 7999.69,15255.69 7973.23,15246.13 7920.31,15233.65 7893.85,15228.51 7840.94,15215.28 7788.02,15196.9 7761.56,15185.86 7708.65,15164.56 7655.73,15143.98 7629.27,15132.23 7602.81,15121.2 7549.9,15095.48 7523.44,15080.77 7496.98,15069.02 7444.06,15041.82 7417.6,15026.4 7391.15,15011.69 7338.23,14979.35 7311.77,14964.64 7285.31,14949.22 7258.85,14936.73 7205.94,14910.27 7179.48,14895.56 7153.02,14883.81 7100.1,14856.61 7047.19,14827.22 7022.21,14812.51 6995.75,14800.76 6981.04,14792.66 6941.35,14783.85 6941.35,14757.4 6967.81,14704.48 6928.12,14697.86 6886.96,14685.38 6861.98,14675.82 6809.06,14652.3 6784.09,14641.27 6742.92,14628.04 6703.23,14625.1 6682.64,14664.05 6668.67,14677.28 6647.38,14700.06 6598.14,14741.23 6551.09,14786.05 6530.51,14811.05 6498.92,14863.23 6487.14,14889.69 6475.4,14916.15 6457.01,14969.06 6444.52,15021.98 6440.84,15048.44 6438.65,15101.35 6438.65,15127.81 6438.65,15180.73 6438.65,15233.65 6439.39,15286.56 6440.84,15313.02 6448.94,15365.94 6454.81,15392.4 6462.91,15445.31 6465.85,15498.23 6467.3,15524.69 6475.4,15577.6 6481.27,15604.06 6489.37,15656.98 6490.82,15683.44 6491.56,15709.9 6492.3,15762.81 6493.76,15789.27 6501.85,15842.19 6507.73,15868.65 6515.82,15921.56 6518.76,15974.48 6520.22,16000.94 6528.31,16053.85 6539.35,16106.77 6549.61,16159.69 6555.51,16186.15 6562.84,16212.6 6581.23,16265.52 6592.26,16291.98 6612.11,16344.9 6628.27,16397.81 6635.6,16424.27 6656.93,16477.19 6670.9,16503.65 6682.64,16530.1 6697.36,16556.56 6709.84,16583.02 6739.98,16635.94 6772.31,16688.85 6787.02,16715.31 6801.71,16741.77 6812.74,16766.75 6828.17,16807.92 6835.52,16847.6 6795.83,16829.24 6781.12,16818.95 6729.69,16783.65 6678.97,16739.57 6637.08,16690.34 6611.37,16649.17 6597.4,16609.48 6579.03,16630.06 6579.75,16644.03 6584.91,16689.59 6610.62,16741.77 6652.51,16794.69 6677.51,16820.41 6703.23,16845.41 6756.15,16889.49 6809.06,16926.24 6835.52,16943.15 6888.44,16973.28 6914.9,16985.77 6967.81,17012.23 6994.27,17026.2 7020.73,17037.23 7047.19,17048.98 7100.1,17069.56 7126.56,17081.31 7153.02,17092.34 7179.48,17106.31 7205.94,17118.06 7232.4,17132.03 7285.31,17154.81 7311.77,17164.36 7364.69,17182.75 7391.15,17192.3 7417.6,17201.85 7444.06,17213.6 7470.52,17224.64 7496.98,17237.86 7549.9,17260.65 7576.35,17270.2 7602.81,17279.75 7629.27,17288.59 7682.19,17306.21 7708.65,17315.04 7761.56,17334.15 7814.48,17355.45 7840.94,17366.48 7893.85,17385.58 7946.77,17403.23 7973.23,17411.33 7999.69,17419.4 8052.6,17433.37 8079.06,17439.98 8105.52,17448.05 8158.44,17464.24 8184.9,17471.57 8211.35,17477.47 8264.27,17487.74 8317.19,17498.77 8343.65,17503.19 8370.1,17506.87 8423.02,17509.06 8449.48,17509.06 8502.4,17506.87 8555.31,17498.03 8581.77,17490.7 8634.69,17472.31 8687.6,17449.53 8714.06,17436.3 8766.98,17413.52 8819.9,17392.94 8872.81,17371.64 8899.27,17360.6 8952.19,17340.02 8977.16,17328.99 9003.62,17318.72 9018.33,17310.63 9058.02,17297.4 9037.44,17280.49 9023.47,17283.43 9002.17,17283.43 8977.9,17290.04 8925.73,17307.69 8872.81,17328.99 8846.35,17340.02 8793.44,17358.41 8768.46,17365.74 8742,17370.9 8727.29,17374.57 8687.6,17376.77 8661.15,17350.31 8661.15,17218.02 8661.15,17165.1 8660.4,17138.65 8658.95,17112.19 8650.85,17059.27 8644.98,17034.29 8640.56,17007.84 8636.88,16993.13 8634.69,16953.44 8665.56,16993.13 8686.12,17034.29 8703.77,17085.73 8711.13,17112.19 8719.94,17138.65 8743.46,17189.37 8778.01,17231.25 8822.09,17257.71 8847.09,17264.32 8872.81,17268.74 8925.73,17268.74 8978.65,17258.45 9005.1,17248.16 9031.56,17237.12 9084.48,17207.73 9110.94,17190.82 9137.4,17173.91 9163.85,17156.29 9216.77,17121 9269.69,17086.47 9296.15,17069.56 9349.06,17039.43 9375.52,17026.94 9401.98,17012.23 9428.44,17000.48 9454.9,16985.77 9481.35,16974.02 9507.81,16960.05 9560.73,16937.27 9613.65,16916.69 9666.56,16895.39 9693.02,16884.35 9745.94,16863.77 9798.85,16840.99 9825.31,16827.76 9878.23,16804.98 9931.15,16784.4 9984.06,16761.61 10010.52,16747.64 10063.44,16721.19 10089.9,16708.7 10116.35,16693.27 10142.81,16678.56 10195.73,16646.23 10248.65,16616.09 10275.1,16602.86 10328.02,16571.27 10354.48,16552.14 10407.4,16513.2 10458.83,16472.77 10473.54,16461.76 10511.89,16374.49 10518.48,16412.83 10494.13,16478.67 10457.38,16527.17 10407.4,16566.85 10354.48,16598.45 10328.02,16615.35 10275.1,16650.65 10248.65,16666.07 10222.19,16682.24 10169.27,16709.44 10144.29,16720.45 10117.84,16735.9 10103.12,16741.77 10063.44,16768.23 10084.02,16785.14 10097.99,16781.46 10119.29,16780.72 10169.27,16761.61 10195.73,16747.64 10248.65,16721.19 10275.1,16708.7 10328.02,16678.56 10380.94,16646.23 10407.4,16630.8 10460.31,16597.73 10511.75,16563.18 10538.21,16548.47 10552.92,16539.66 10592.6,16530.1 10602.16,16563.18 10611.71,16574.21 10627.16,16594.77 10646.26,16615.35 10685.95,16663.14 10718.28,16715.31 10731.51,16741.77 10747.68,16768.23 10763.84,16794.69 10806.47,16847.6 10831.47,16874.06 10883.65,16924.78 10936.56,16967.41 10989.48,16999.74 11042.4,17026.94 11068.85,17038.69 11095.31,17053.4 11121.77,17065.14 11148.23,17079.86 11201.15,17106.31 11227.6,17118.06 11254.06,17132.77 11306.98,17158.49 11359.9,17181.27 11412.81,17200.37 11439.27,17209.21 11492.19,17228.31 11518.65,17239.35 11571.56,17260.65 11624.48,17281.23 11677.4,17302.53 11703.85,17313.56 11730.31,17323.11 11756.77,17332.66 11783.23,17341.5 11836.15,17359.12 11862.6,17367.96 11889.06,17377.51 11915.52,17387.06 11941.98,17398.1 11968.44,17408.36 11994.9,17419.4 12047.81,17439.98 12100.73,17460.56 12127.19,17470.12 12180.1,17481.12 12206.56,17484.09 12259.48,17492.9 12312.4,17505.38 12338.85,17512.74 12365.31,17518.61 12391.77,17525.97 12418.23,17531.84 12444.69,17539.2 12497.6,17551.69 12550.52,17559.78 12603.44,17561.98 12656.35,17561.24 12682.81,17559.78 12735.73,17551.69 12762.19,17545.81 12815.1,17537.72 12868.02,17533.32 12920.94,17525.23 12947.4,17519.35 13000.31,17509.06 13053.23,17498.77 13079.69,17492.16 13106.15,17486.28 13159.06,17470.86 13211.98,17451.01 13238.44,17439.98 13291.35,17420.88 13344.27,17403.23 13423.65,17376.77 13450.1,17367.96 13503.02,17349.57 13529.48,17340.02 13582.4,17317.24 13608.85,17304.01 13661.77,17281.23 13714.69,17262.13 13741.15,17253.29 13794.06,17234.19 13846.98,17212.89 13873.44,17201.85 13926.35,17182.75 13952.81,17173.91 13979.27,17164.36 14005.73,17154.81 14058.65,17132.03 14085.1,17118.06 14111.56,17106.31 14138.02,17091.6 14164.48,17079.86 14190.94,17065.14 14217.4,17053.4 14243.85,17038.69 14296.77,17012.23 14323.23,16999.74 14349.69,16983.57 14376.15,16968.15 14429.06,16930.66 14454.78,16910.07 14479.78,16890.23 14522.41,16845.41 14554.74,16794.69 14567.23,16768.23 14581.94,16741.77 14594.43,16715.31 14626.76,16663.14 14668.67,16615.35 14714.23,16572.73 14735.53,16550.69 14770.08,16502.91 14782.57,16478.67 14796.54,16437.5 14799.48,16397.81 14770.82,16418.4 14761.27,16432.37 14742.14,16453.67 14712.01,16502.16 14703.2,16516.88 14693.65,16556.56 14667.19,16556.56 14614.27,16530.1 14595.17,16569.79 14593.69,16584.5 14587.07,16610.96 14574.58,16662.4 14562.84,16688.85 14548.13,16715.31 14506.24,16768.23 14481.24,16793.95 14430.54,16838.79 14389.38,16864.51 14349.69,16874.06 14357.04,16834.38 14372.47,16793.21 14382.76,16768.23 14396.73,16741.77 14409.22,16715.31 14424.64,16688.85 14439.35,16662.4 14471.69,16609.48 14486.4,16583.02 14501.08,16556.56 14523.15,16503.65 14539.31,16450.73 14546.64,16424.27 14556.94,16397.81 14566.49,16371.35 14577.52,16344.9 14595.91,16291.98 14610.59,16239.06 14617.95,16212.6 14630.44,16159.69 14638.53,16106.77 14639.99,16080.31 14642.93,16027.4 14651.02,15974.48 14656.9,15948.02 14664.99,15895.1 14666.45,15868.65 14667.19,15842.19 14667.93,15789.27 14669.38,15762.81 14677.48,15709.9 14683.35,15683.44 14691.45,15630.52 14692.91,15604.06 14695.84,15551.15 14699.52,15524.69 14709.81,15471.77 14717.91,15418.85 14719.36,15392.4 14720.1,15339.48 14720.1,15286.56 14720.1,15180.73 14719.36,15127.81 14717.91,15101.35 14709.07,15048.44 14701.74,15021.98 14684.84,14969.06 14664.25,14916.15 14632.63,14865.43 14587.07,14820.6 14537.83,14777.98 14504.02,14730.2 14499.63,14704.48 14517.99,14654.5 14537.83,14633.91 14562.1,14617.01 14614.27,14592.77 14640.73,14580.28 14692.16,14544.25 14706.88,14531.76 14746.56,14492.81 14758.31,14532.5 14764.21,14547.21 14781.12,14598.65 14788.45,14625.1 14793.61,14651.56 14797.28,14678.02 14799.48,14730.94 14799.48,14783.85 14799.48,14810.31 14799.48,14863.23 14799.48,14995.52 14799.48,15180.73 14799.48,15233.65 14798.74,15260.1 14797.28,15286.56 14789.19,15339.48 14782.57,15365.94 14776.7,15392.4 14769.34,15418.85 14763.47,15445.31 14752.44,15498.23 14748.76,15524.69 14745.82,15577.6 14744.37,15604.06 14736.27,15656.98 14730.4,15683.44 14722.3,15736.35 14720.85,15762.81 14720.1,15815.73 14720.1,15868.65 14720.1,15895.1 14719.36,15921.56 14717.91,15948.02 14709.81,16000.94 14699.52,16053.85 14695.84,16080.31 14691.45,16133.23 14683.35,16186.15 14673.06,16239.06 14669.38,16265.52 14664.99,16318.44 14656.9,16371.35 14651.02,16397.81 14642.93,16449.25 14640.73,16503.65 14669.38,16483.06 14678.94,16469.09 14698.78,16447.79 14716.43,16423.53 14756.11,16371.35 14775.96,16344.9 14807.58,16291.98 14817.13,16265.52 14825.2,16212.6 14825.94,16186.15 14825.94,16133.23 14825.94,16080.31 14825.94,16000.94 14825.94,15974.48 14826.68,15921.56 14828.13,15895.1 14836.23,15842.19 14842.1,15815.73 14850.2,15762.81 14851.66,15736.35 14852.4,15683.44 14852.4,15630.52 14852.4,15445.31 14852.4,14916.15 14852.4,14730.94 14852.4,14678.02 14852.4,14651.56 14850.2,14598.65 14842.1,14545.73 14836.23,14519.27 14828.13,14466.35 14823.74,14413.44 14820.06,14386.98 14814.9,14360.52 14807.58,14334.06 14788.45,14281.15 14775.22,14254.69 14759.79,14228.23 14717.91,14177.51 14667.19,14134.88 14614.27,14103.29 14587.81,14091.52 14561.35,14079.77 14534.9,14070.22 14481.98,14051.83 14429.06,14034.92 14402.6,14026.85 14349.69,14012.88 14296.77,13999.66 14270.31,13993.78 14243.85,13985.69 14217.4,13978.36 14164.48,13957.03 14138.02,13943.8 14085.1,13921.02 14032.19,13901.92 13979.27,13884.27 13873.44,13849 13794.06,13822.54 13741.15,13804.9 13688.23,13788.73 13661.77,13782.12 13608.85,13768.15 13582.4,13760.08 13529.48,13743.88 13503.02,13735.81 13450.1,13721.84 13423.65,13715.97 13397.19,13708.61 13370.73,13702.74 13344.27,13695.38 13291.35,13682.16 13264.9,13676.28 13238.44,13668.93 13185.52,13655.7 13159.06,13649.82 13132.6,13642.47 13079.69,13629.98 13053.23,13624.82 13000.31,13614.55 12973.85,13609.4 12947.4,13603.52 12894.48,13595.43 12868.02,13593.97 12815.1,13593.23 12762.19,13593.23 12576.98,13593.23 12615.93,13555.74 12629.16,13544.73 12671.78,13503.56 12708.53,13458.74 12724.7,13433.74 12748.96,13383.04 12759.99,13341.87 12762.19,13302.19 12735.73,13322.77 12738.1,13310.22 12738.1,13310.22 12739.97,13319.48 12735.73,13322.77 12732.78,13306.72 12726.48,13314.13 12710.84,13332.01 12702.61,13340.43 12710.84,13332.01 12698.24,13328.65 12732.79,13275.73 12754.83,13222.81 12761.45,13196.35 12772.48,13143.44 12778.35,13116.98 12786.45,13064.06 12788.65,13011.15 12788.65,12984.69 12788.65,12931.77 12788.65,12640.73 12788.65,12349.69 12788.65,12243.85 12789.39,12190.94 12790.84,12164.48 12798.94,12111.56 12804.81,12085.1 12812.91,12032.19 12814.36,12005.73 12815.1,11952.81 12815.1,11926.35 12815.1,11846.98 12815.1,11714.69 12815.1,11661.77 12814.36,11635.31 12812.91,11608.85 12804.81,11555.94 12798.94,11529.48 12790.84,11476.56 12786.45,11423.65 12778.35,11370.73 12767.32,11317.81 12762.19,11291.35 12748.96,11238.44 12722.5,11185.52 12702.66,11159.8 12680.62,11134.81 12629.9,11090.71 12576.98,11055.43 12550.52,11041.47 12497.6,11017.22 12444.69,10995.9 12418.23,10985.61 12391.77,10978.26 12338.85,10963.56 12312.4,10955.48 12259.48,10939.31 12233.02,10931.23 12206.56,10924.61 12153.65,10909.18 12127.19,10898.89 12074.27,10878.31 12021.35,10857.73 11994.9,10846.71 11968.44,10836.42 11941.98,10825.39 11915.52,10815.84 11889.06,10806.29 11836.15,10788.65 11783.23,10772.48 11756.77,10765.86 11703.85,10751.9 11677.4,10743.81 11624.48,10727.65 11598.02,10719.56 11571.56,10712.95 11518.65,10698.98 11492.19,10690.9 11439.27,10674.73 11412.81,10666.64 11359.9,10652.68 11333.44,10646.8 11306.98,10639.45 11280.52,10633.57 11227.6,10618.14 11174.69,10599.03 11148.23,10589.47 11095.31,10578.45 11068.85,10575.51 11015.94,10566.69 10989.48,10560.81 10963.02,10555.67 10910.1,10545.38 10883.65,10540.23 10857.19,10534.35 10804.27,10526.27 10777.81,10524.8 10751.35,10524.06 10698.44,10524.06 10566.15,10524.06 10486.77,10524.06 10460.31,10524.06 10407.4,10524.06 10354.48,10526.27 10328.02,10529.94 10275.1,10540.97 10222.19,10554.2 10195.73,10560.08 10169.27,10567.42 10142.81,10573.3 10116.35,10580.65 10089.9,10586.53 10063.44,10593.88 10036.98,10599.76 10010.52,10607.11 9957.6,10620.34 9931.15,10626.22 9904.69,10633.57 9878.23,10639.45 9851.77,10646.8 9825.31,10652.68 9772.4,10666.64 9745.94,10674.73 9693.02,10690.9 9666.56,10698.98 9640.1,10705.6 9587.19,10719.56 9560.73,10727.65 9507.81,10743.81 9481.35,10751.9 9454.9,10758.51 9401.98,10773.95 9375.52,10784.24 9322.6,10804.81 9269.69,10825.39 9216.77,10848.18 9190.31,10861.41 9137.4,10884.19 9084.48,10902.56 9058.02,10910.65 9031.56,10917.26 8978.65,10930.49 8952.19,10937.84 8925.73,10943.72 8899.27,10951.81 8872.81,10959.16 8846.35,10969.44 8793.44,10990.02 8740.52,11010.6 8714.06,11022.36 8687.6,11033.39 8634.69,11059.84 8581.77,11092.18 8531.79,11134.81 8511.21,11159.8 8494.3,11185.52 8473,11238.44 8466.39,11264.9 8453.16,11317.81 8439.93,11370.73 8433.31,11397.19 8425.22,11450.1 8420.82,11503.02 8417.15,11529.48 8406.85,11582.4 8402.44,11608.85 8398.76,11635.31 8396.56,11688.23 8396.56,11741.15 8396.56,11794.06 8397.3,11846.98 8398.76,11873.44 8406.85,11926.35 8412.73,11952.81 8420.82,12005.73 8422.28,12032.19 8423.02,12085.1 8423.02,12190.94 8423.02,12561.35 8423.02,12693.65 8423.02,12720.1 8423.76,12773.02 8425.22,12799.48 8433.31,12852.4 8439.19,12878.85 8447.28,12931.77 8448.74,12958.23 8449.48,13011.15 8449.48,13064.06 8449.48,13090.52 8450.22,13143.44 8451.68,13169.9 8462.71,13222.81 8473.74,13249.27 8503.14,13299.99 8539.15,13344.81 8558.99,13365.4 8598.68,13408.02 8640.56,13450.65 8688.34,13491.07 8740.52,13530.02 8793.44,13566.77 8819.9,13584.42 8872.81,13618.95 8899.27,13635.85 8925.73,13650.56 8952.19,13665.99 8978.65,13678.48 9031.56,13704.94 9058.02,13719.65 9084.48,13731.39 9110.94,13746.11 9137.4,13757.85 9163.85,13772.56 9190.31,13784.31 9216.77,13798.28 9269.69,13821.06 9322.6,13841.65 9375.52,13862.95 9401.98,13873.98 9454.9,13894.56 9507.81,13917.34 9534.27,13930.57 9587.19,13954.09 9613.65,13965.13 9666.56,13991.59 9693.02,14007.01 9719.48,14020.98 9745.94,14036.41 9772.4,14048.89 9798.85,14063.61 9851.77,14091.52 9878.23,14106.23 9931.15,14140.04 9984.06,14175.31 10010.52,14192.96 10036.98,14209.87 10089.9,14238.52 10142.81,14257.62 10169.27,14264.24 10195.73,14270.11 10248.65,14270.85 10299.37,14251.75 10341.25,14217.2 10369.9,14173.12 10380.2,14148.11 10398.59,14095.94 10416.21,14044.5 10422.11,14029.79 "/>
  <polygon class="fil0" points="10275.1,10788.65 10314.79,10775.42 10329.5,10766.6 10355.96,10755.57 10380.94,10742.34 10433.85,10721.76 10486.77,10712.21 10539.69,10715.15 10566.15,10720.3 10592.6,10727.65 10645.52,10744.55 10671.98,10753.37 10698.44,10762.19 10749.87,10777.62 10776.33,10782.77 10791.04,10786.44 10830.73,10788.65 10810.14,10757.78 10796.17,10751.16 10774.88,10737.2 10724.9,10719.56 10671.98,10705.6 10645.52,10699.72 10592.6,10686.49 10566.15,10679.87 10513.23,10672.52 10460.31,10675.46 10407.4,10687.22 10380.94,10694.57 10330.96,10716.62 10310.37,10730.59 10284.66,10756.31 "/>
  <g>
   <path class="fil1" d="M10910.1 10841.56l20.59 37.49 13.23 11.02 19.84 21.31 41.14 36.02 37.5 35.27 35.26 36.02 16.91 19.11 31.62 44.09 14.68 24.99 22.07 52.18 6.61 26.46 6.62 26.46 3.65 52.92 -2.94 26.45 -5.13 26.46 -21.32 52.92 -15.43 25.72 -41.88 47.04 -25.01 20.58 -52.17 32.34 -26.46 12.49 -26.46 13.96 -52.92 20.58 -26.45 6.62 -26.46 5.88 -52.92 12.49 -26.46 9.56 -52.91 18.37 -26.46 5.88 -26.46 4.41 -52.92 2.2 -26.46 0 -52.91 0 -52.92 -2.2 -26.46 -3.67 -26.46 -5.15 -52.91 -15.43 -26.46 -8.82 -52.92 -18.38 -26.46 -9.55 -26.45 -11.76 -26.46 -11.03 -26.46 -13.96 -52.92 -26.46 -26.46 -11.76 -26.45 -14.7 -26.46 -11.75 -26.46 -14.71 -26.46 -11.75 -26.46 -14.7 -52.91 -26.46 -26.46 -12.5 -26.46 -15.43 -26.46 -14.7 -52.92 -32.34 -26.45 -14.7 -26.46 -15.43 -52.92 -27.19 -26.46 -11.76 -26.46 -14.7 -26.45 -12.5 -26.46 -15.43 -26.46 -14.7 -52.92 -32.34 -52.91 -30.13 -26.46 -12.49 -52.92 -24.26 -26.46 -10.29 -26.46 -5.88 -26.45 -4.41 -51.44 -2.2 -54.4 0 0 54.38 0 26.46 2.94 51.45 16.17 52.92 36.75 52.18 24.26 24.99 25.72 22.78 52.91 40.42 52.92 33.81 52.92 26.46 52.91 21.31 52.92 21.32 26.46 11.02 52.91 19.11 26.46 8.82 52.92 19.11 26.46 11.02 26.46 10.29 52.91 22.78 26.46 12.5 26.46 12.49 52.92 26.46 52.91 27.93 26.46 14.7 52.92 26.46 26.46 11.76 52.91 26.45 26.46 15.44 52.92 29.4 26.46 12.49 26.45 13.97 26.46 11.02 26.46 11.76 26.46 9.55 26.46 9.56 52.91 17.64 52.92 17.64 26.46 8.82 52.92 15.43 26.45 5.15 26.46 3.67 52.92 2.2 26.46 0 26.46 0 26.45 0 52.92 -2.2 52.92 -8.09 26.46 -5.87 26.45 -4.42 26.46 -4.41 26.46 -2.93 52.92 -9.56 52.17 -16.17 25.01 -10.29 44.82 -25.72 20.58 -14.7 44.82 -27.93 50.72 -27.92 26.46 -14.7 52.92 -24.26 52.91 -16.9 26.46 -7.35 52.92 -21.32 26.46 -13.96 52.91 -26.46 26.46 -11.76 52.92 -26.45 26.46 -13.97 26.46 -10.29 26.45 -10.29 52.92 -10.29 52.92 -2.2 26.46 0 52.91 0 52.92 0 26.46 -0.74 26.46 -2.2 50.72 -16.17 22.04 -16.17 34.55 -44.83 11.75 -25.73 10.29 -52.91 -3.68 -52.92 -6.61 -26.46 -24.26 -52.18 -33.79 -47.77 -19.13 -21.31 -44.08 -37.49 -25 -17.64 -52.18 -32.33 -26.46 -13.23 -26.46 -10.29 -26.45 -8.82 -52.92 -15.44 -52.92 -16.16 -26.46 -7.35 -26.45 -5.88 -52.92 -10.3 -52.92 -11.02 -26.46 -4.41 -52.91 -5.88 -52.92 -5.88 -52.92 -10.29 -52.91 -8.82 -26.46 -2.93 -52.92 -9.56 -26.46 -7.35 -52.91 -18.37 -26.46 -11.76 -26.46 -11.03 -26.46 -13.23 -52.91 -22.78 -51.44 -18.37 -26.46 -7.35 -14.71 -4.41 -39.69 -6.62 0 0zm-2328.33 291.04l-36.01 54.39 -26.46 51.45 -13.97 52.91 -3.67 52.92 -1.46 26.46 -8.1 52.92 -5.87 26.45 -8.1 52.92 -1.45 26.46 -0.74 51.45 12.75 1126.76 36.47 490.38 31.17 -73.99 131.27 -143.07 66.96 -289.77 -144.13 -685.51 -56.28 -371.29 53.5 -72.32 44.5 -110.76 88.37 28.14 52.92 7.35 26.46 6.62 52.91 13.96 26.46 7.35 26.46 10.29 26.46 9.56 52.91 21.31 52.92 21.31 26.46 10.29 26.46 11.02 52.91 20.58 52.92 21.32 26.46 11.02 26.46 9.56 26.46 9.55 52.91 17.64 26.46 8.82 52.92 19.84 52.91 24.26 26.46 12.49 26.46 12.5 52.92 22.78 26.46 9.55 24.97 9.56 41.17 10.29 39.69 2.2 -20.59 -32.34 -13.97 -9.55 -21.29 -16.17 -49.98 -27.19 -26.46 -13.97 -52.92 -22.78 -26.46 -9.56 -52.91 -18.37 -52.92 -17.64 -105.83 -35.28 -52.92 -17.63 -26.46 -8.83 -52.92 -19.1 -52.91 -22.79 -26.46 -13.23 -26.46 -11.02 -26.46 -12.5 -26.46 -11.02 -52.91 -26.46 -26.46 -15.43 -26.46 -14.7 -52.92 -33.07 -26.45 -19.11 -52.18 -38.96 -47.78 -41.89 -21.3 -22.78 -35.3 -50.71 -27.91 -49.98 -15.45 -21.31 -7.33 -13.97 -30.88 -20.58 0 0zm4021.67 0l-15.43 52.92 -5.16 26.46 -3.67 13.23 -2.2 39.69 39.69 19.84 13.23 11.76 39.68 27.93 39.69 19.84 -2.2 -39.69 -8.83 -41.15 -8.07 -24.99 -22.78 -49.98 -17.65 -21.31 -9.55 -13.97 -36.75 -20.58z"/>
  </g>
  <polygon class="fil1" points="12682.81,11423.65 12628.41,11475.09 12601.96,11496.41 12550.52,11527.28 12499.09,11550.79 12472.63,11561.08 12457.92,11569.17 12418.23,11582.4 12418.23,11688.23 12457.92,11708.81 12472.63,11722.77 12499.09,11744.09 12548.32,11794.06 12590.95,11846.98 12607.12,11873.44 12622.54,11899.9 12634.31,11926.35 12655.61,11979.27 12671.78,12032.19 12680.62,12085.1 12682.81,12138.02 12682.81,12164.48 12680.62,12217.4 12676.94,12243.85 12672.52,12270.31 12662.23,12323.23 12657.1,12376.15 12655.61,12429.06 12654.16,12455.52 12646.06,12508.44 12640.19,12534.9 12632.09,12587.81 12630.64,12614.27 12629.9,12640.73 12629.16,12693.65 12627.7,12720.1 12619.6,12773.02 12613.73,12799.48 12605.63,12852.4 12604.18,12878.85 12601.24,12931.77 12597.56,12958.23 12587.27,13011.15 12582.11,13037.6 12571.85,13090.52 12566.69,13116.98 12560.07,13143.44 12554.2,13169.9 12538.77,13222.81 12528.48,13249.27 12509.35,13302.19 12502.02,13328.65 12493.93,13355.1 12487.31,13381.56 12470.41,13434.48 12449.11,13487.4 12437.33,13513.85 12406.48,13566.77 12388.09,13593.23 12354.28,13646.15 12339.6,13672.6 12325.63,13699.06 12302.1,13750.5 12294.03,13776.96 12288.87,13791.67 12285.94,13831.35 12325.63,13824 12340.34,13818.12 12391.77,13791.67 12442.49,13749.78 12485.12,13699.06 12516.71,13646.15 12527.74,13619.69 12538.77,13593.23 12554.2,13540.31 12560.07,13513.85 12567.43,13487.4 12573.3,13460.94 12587.27,13408.02 12595.34,13381.56 12603.44,13355.1 12618.86,13302.19 12627.7,13249.27 12629.16,13222.81 12629.9,13169.9 12629.9,13116.98 12632.09,13064.06 12635.77,13037.6 12646.06,12984.69 12650.48,12958.23 12654.16,12931.77 12658.55,12878.85 12662.23,12852.4 12672.52,12799.48 12680.62,12746.56 12682.07,12720.1 12685.01,12667.19 12693.1,12614.27 12698.98,12587.81 12707.07,12534.9 12708.53,12508.44 12709.27,12455.52 12710.01,12402.6 12711.47,12376.15 12719.56,12323.23 12725.44,12296.77 12733.53,12243.85 12734.99,12217.4 12735.73,12190.94 12735.73,12138.02 12735.73,11979.27 12735.73,11661.77 12735.73,11608.85 12735.73,11582.4 12733.53,11529.48 12723.98,11479.5 12712.95,11458.19 12708.53,11444.23 "/>
  <polygon class="fil2" points="9155.04,11564.76 9155.04,11573.58 9172.66,11573.58 9172.66,11564.76 "/>
  <polygon class="fil1" points="10804.27,12270.31 10885.13,12270.31 10910.1,12270.31 10963.02,12269.58 10989.48,12268.11 11042.4,12260.02 11068.85,12254.14 11121.77,12243.85 11174.69,12232.83 11227.6,12217.4 11254.06,12209.31 11280.52,12201.23 11333.44,12187.26 11359.9,12180.65 11412.81,12163.74 11439.27,12154.19 11492.19,12131.41 11518.65,12117.44 11545.1,12105.68 11571.56,12090.98 11598.02,12079.23 11650.94,12052.77 11677.4,12038.07 11703.85,12026.31 11730.31,12011.61 11756.77,11999.85 11783.23,11985.15 11809.69,11973.39 11836.15,11958.69 11862.6,11946.93 11889.06,11932.23 11915.52,11920.48 11941.98,11905.77 11994.9,11879.32 12021.35,11866.82 12074.27,11836.69 12100.73,11819.79 12150.71,11784.51 12172.01,11763.19 12185.98,11752.17 12206.56,11714.69 12166.88,11715.42 12125.71,11721.3 12100.73,11727.18 12074.27,11736.74 12021.35,11755.11 11968.44,11768.34 11941.98,11774.95 11915.52,11783.77 11862.6,11804.35 11836.15,11813.17 11783.23,11828.6 11756.77,11838.9 11703.85,11867.56 11650.94,11894.02 11598.02,11915.33 11545.1,11938.85 11518.65,11950.61 11465.73,11970.45 11439.27,11979.27 11386.35,11996.91 11306.98,12023.37 11280.52,12032.19 11227.6,12048.36 11201.15,12054.97 11148.23,12068.94 11121.77,12077.02 11068.85,12093.19 11015.94,12106.42 10989.48,12111.56 10936.56,12122.59 10910.1,12130.67 10860.12,12154.93 10823.37,12192.41 10813.08,12216.66 "/>
  <polygon class="fil1" points="10301.56,12111.56 10321.41,12151.25 10333.89,12165.95 10351.54,12192.41 10371.39,12217.4 10411.07,12270.31 10429.44,12296.77 10448.56,12323.23 10480.16,12376.15 10450.34,12419.52 10296.34,12546.67 10106.59,12900.1 10122.98,13325.12 10404.8,13743.86 10489.6,13701.21 10554.64,13211.35 10564.66,12505.5 10565.41,12481.24 10568.34,12429.06 10576.44,12376.15 10582.31,12349.69 10588.19,12296.77 10582.31,12245.32 10576.44,12218.86 10572.76,12204.17 10566.15,12164.48 10511.75,12149.05 10460.31,12139.49 10407.4,12132.14 10355.96,12121.85 10341.25,12118.18 "/>
  <polygon class="fil1" points="10645.52,12693.65 10645.52,13143.44 10645.52,13275.73 10645.52,13328.65 10644.78,13355.1 10643.32,13381.56 10635.23,13434.48 10629.35,13460.94 10621.26,13513.85 10619.8,13540.31 10616.87,13593.23 10613.19,13619.69 10602.9,13672.6 10598.48,13699.06 10591.12,13751.98 10582.31,13804.9 10576.44,13831.35 10568.34,13884.27 10566.89,13910.73 10566.89,13963.65 10568.34,13990.1 10577.18,14043.02 10585.25,14069.48 10609.51,14121.65 10627.16,14146.66 10672.72,14188.54 10724.9,14215 10751.35,14222.36 10804.27,14233.36 10857.19,14243.65 10883.65,14246.59 10910.1,14246.59 10936.56,14243.65 10989.48,14233.36 11042.4,14223.1 11068.85,14217.94 11121.77,14205.45 11148.23,14197.35 11174.69,14190.02 11201.15,14179.73 11254.06,14159.15 11306.98,14138.56 11333.44,14126.81 11359.9,14115.78 11386.35,14101.81 11412.81,14090.06 11439.27,14075.35 11465.73,14062.86 11518.65,14032.73 11571.56,14000.4 11598.02,13985.69 11624.48,13970.26 11650.94,13957.77 11677.4,13943.06 11703.85,13931.31 11730.31,13917.34 11783.23,13894.56 11836.15,13873.98 11889.06,13851.2 11915.52,13837.97 11941.98,13826.94 11994.9,13802.7 12047.07,13770.34 12091.92,13726.26 12117.64,13685.83 12127.19,13646.15 12072.79,13661.57 12021.35,13670.41 11994.9,13671.86 11941.98,13674.8 11889.06,13682.9 11862.6,13689.51 11836.15,13695.38 11783.23,13708.61 11756.77,13715.23 11703.85,13724.04 11677.4,13727 11624.48,13735.81 11598.02,13742.43 11545.1,13755.66 11518.65,13761.53 11492.19,13768.15 11439.27,13776.24 11386.35,13778.44 11333.44,13777.7 11306.98,13775.5 11280.52,13770.34 11254.06,13761.53 11227.6,13749.04 11175.43,13714.49 11150.43,13693.19 11108.54,13645.4 11082.08,13593.23 11071.79,13540.31 11071.79,13513.85 11074.73,13487.4 11079.15,13460.94 11089.44,13408.02 11093.12,13381.56 11095.31,13328.65 11095.31,13302.19 11092.38,13249.27 11076.21,13196.35 11039.46,13145.63 10989.48,13100.81 10936.56,13060.38 10910.85,13041.28 10863.06,13000.86 10823.37,12956.03 10806.47,12931.04 10779.29,12878.85 10768.26,12852.4 10744.74,12799.48 10730.77,12773.76 10718.28,12749.5 10703.57,12728.92 10677.85,12703.2 "/>
  <g>
   <path class="fil0" d="M12497.6 12720.1l0 158.75 19.11 -20.58 0.74 -13.96 5.13 -21.31 0 -47.04 -5.13 -21.31 -0.74 -13.97 -19.11 -20.58 0 0zm-26.45 211.67l-0.74 54.39 -1.46 26.46 -8.1 51.44 -5.87 26.46 -8.1 52.92 -4.39 52.91 -8.09 52.92 -11.04 52.92 -11 52.91 -6.62 26.46 -20.58 52.92 -13.23 26.46 -20.59 51.43 -10.29 41.17 -2.2 39.69 32.34 -20.59 23.52 -35.26 11.03 -24.27 16.17 -52.17 5.87 -26.46 13.23 -52.92 13.97 -52.91 8.07 -26.46 16.19 -52.92 7.33 -26.46 5.16 -26.46 3.68 -26.45 2.19 -52.92 0 -52.92 -0.74 -52.18 -0.74 -24.25 -5.13 -21.32 -0.74 -13.96 -19.1 -20.58 0 0zm-3862.92 264.58l20.58 19.11 13.97 0 21.3 3.67 49.98 -6.61 26.46 -6.61 52.92 -13.23 26.46 -5.88 52.91 -13.23 52.92 -13.23 26.46 -6.61 52.91 -8.1 26.46 -1.45 52.92 -2.94 52.92 -8.09 26.45 -6.62 52.92 -13.23 26.46 -5.87 26.46 -6.62 52.91 -8.09 52.92 -2.94 26.46 -1.46 52.92 -8.09 26.45 -5.88 52.92 -8.09 26.46 -1.46 51.43 -0.74 54.4 0 -20.58 -19.1 -13.97 -0.74 -21.3 -5.13 -24.26 -0.75 -25.72 -0.74 -52.92 0 -52.91 0 -26.46 0 -52.92 2.2 -26.46 3.68 -26.46 5.16 -52.91 15.42 -52.92 15.43 -52.92 8.83 -52.91 2.2 -52.92 0.74 -26.46 1.46 -26.46 3.67 -52.91 10.3 -52.92 8.81 -26.46 2.96 -52.91 9.55 -26.46 7.33 -52.92 16.91 -51.43 17.65 -26.46 8.81 -14.71 5.9 -39.69 11.74 0 0zm2487.08 52.92l9.55 30.14 9.56 5.87 16.16 11.77 44.85 15.43 25.72 8.07 52.91 16.19 26.46 8.07 26.46 6.62 52.92 13.97 52.91 16.9 52.92 20.59 26.46 9.55 26.46 10.29 26.45 7.33 26.46 8.1 52.92 14.68 52.92 16.19 24.97 7.33 41.17 8.84 39.69 2.2 -20.59 -25.72 -13.97 -5.16 -21.29 -12.49 -24.27 -8.81 -25.71 -9.55 -52.92 -17.65 -79.38 -26.46 -52.91 -17.65 -26.46 -8.81 -52.92 -16.16 -26.46 -6.62 -52.91 -15.42 -52.92 -19.13 -26.46 -10.29 -26.46 -7.33 -26.45 -8.1 -24.98 -5.87 -41.17 -10.29 -39.69 -6.62 0 0zm-2381.25 185.21l20.59 37.49 13.97 10.29 21.3 20.56 24.26 15.45 52.17 31.59 26.46 15.43 52.92 26.46 26.46 11.03 52.91 23.52 26.46 13.23 52.92 23.52 26.46 11.04 26.46 12.48 52.91 24.98 26.46 12.49 26.46 11.03 52.92 23.52 26.45 13.23 51.44 20.59 41.17 10.29 39.69 2.2 -20.59 -26.46 -13.97 -5.88 -21.3 -15.45 -24.26 -11 -25.72 -14.72 -26.46 -11.74 -52.91 -26.46 -26.46 -14.71 -52.92 -26.46 -26.46 -11.75 -26.45 -14.71 -52.92 -25.72 -26.46 -11.03 -26.46 -11.75 -52.91 -20.58 -52.92 -22.78 -26.46 -13.97 -26.46 -12.49 -52.91 -29.4 -24.98 -14.71 -26.46 -11.74 -14.71 -8.1 -39.69 -8.81z"/>
  </g>
  <polygon class="fil1" points="8714.06,13646.15 8723.61,13685.83 8749.33,13726.26 8769.92,13749.78 8819.9,13791.67 8844.87,13806.38 8886.04,13824 8925.73,13831.35 8922.79,13792.41 8906.63,13756.4 8890.46,13736.55 8869.88,13717.42 8819.9,13683.64 8794.92,13670.41 8753.75,13653.5 "/>
  <g>
   <path class="fil0" d="M8449.48 13699.06l20.58 19.11 13.97 0.74 21.3 5.13 24.26 0.74 52.18 0.74 24.98 0 80.85 0 0 -52.92 -54.39 0.74 -26.46 1.46 -51.44 8.1 -24.97 5.87 -26.46 4.42 -14.71 3.68 -39.69 2.19 0 0zm4074.58 0l-52.91 52.92 0 26.46 54.39 0 26.46 0 51.44 2.19 52.91 8.84 52.92 15.43 26.46 8.81 52.92 19.84 51.43 23.52 26.46 11.03 14.71 7.36 39.69 8.81 -20.59 -37.49 -13.97 -10.29 -21.3 -19.85 -49.98 -27.17 -52.91 -19.13 -26.46 -7.33 -26.46 -5.16 -52.92 -8.07 -26.45 -5.9 -51.44 -19.1 -14.71 -8.07 -39.69 -17.65 0 0zm-4233.33 105.84l39.69 -8.81 13.23 -7.36 39.68 -19.1 39.69 -17.65 -20.58 -18.36 -13.97 0.71 -20.56 -0.71 -41.91 15.42 -25.72 23.52 -9.55 32.34z"/>
  </g>
  <g>
   <path class="fil1" d="M9825.31 14307.6l-39.69 -8.81 -14.71 -7.35 -26.45 -11.04 -51.44 -23.52 -52.92 -19.84 -26.45 -8.81 -52.92 -14.71 -26.46 -2.94 -26.46 1.48 -26.46 7.36 -52.91 25.72 -52.92 29.39 -52.92 27.2 -26.45 11.75 -26.46 14.71 -26.46 12.49 -26.46 15.42 -26.46 14.71 -52.91 32.34 -26.46 14.71 -26.46 15.42 -52.92 27.2 -26.46 11.75 -26.45 14.71 -26.46 11.75 -26.46 13.97 -52.92 22.78 -26.46 9.55 -52.91 16.91 -26.46 6.61 -52.92 13.23 -52.91 11.03 -26.46 3.68 -52.92 2.2 -26.46 0 -52.91 0 -52.92 0 -26.46 0 -52.92 -2.2 -26.45 -3.68 -52.92 -12.49 -52.92 -18.38 -26.46 -11.75 -26.45 -11.04 -26.46 -13.97 -52.92 -26.45 -26.46 -12.49 -25.72 -16.17 -25 -16.16 -42.62 -42.63 -31.59 -50.72 -11.04 -26.46 -9.55 -26.46 -4.42 -52.91 13.23 -52.92 21.33 -52.92 11.75 -26.45 32.35 -52.92 21.3 -26.46 49.98 -52.92 26.46 -26.45 49.98 -51.44 21.3 -26.46 13.97 -14.71 20.58 -39.69 -39.68 7.36 -41.17 15.42 -24.98 11.04 -26.46 14.68 -52.91 28.68 -26.46 12.49 -26.46 10.29 -26.46 8.81 -52.92 13.23 -26.45 5.16 -52.92 10.27 -52.92 11.03 -52.91 8.1 -52.92 4.39 -52.92 8.1 -26.46 6.61 -52.91 13.23 -26.46 5.87 -26.46 6.62 -52.92 8.81 -26.45 2.96 -52.92 9.55 -52.92 16.17 -52.91 21.3 -26.46 11.77 -52.92 30.85 -50.72 37.49 -42.62 40.43 -31.6 44.82 -11.03 25.01 -10.29 25.71 -10.29 52.92 -1.46 52.92 2.2 26.46 16.16 52.17 16.17 24.26 44.85 36.75 52.17 16.17 26.46 2.2 52.92 0.74 26.46 0 52.91 0 26.46 0 52.92 2.19 26.46 3.68 26.45 5.16 52.92 17.62 52.92 24.26 52.91 26.46 26.46 13.97 52.92 28.66 26.46 12.49 26.46 11.77 26.45 8.07 52.92 16.91 26.46 12.48 26.46 13.97 52.91 34.56 26.46 16.16 26.46 13.97 52.92 23.53 26.46 9.55 26.45 10.29 26.46 7.33 52.92 13.97 26.46 6.61 52.91 8.1 52.92 2.2 26.46 0 26.46 0 79.37 0 52.92 0 26.46 0 26.46 0 52.91 -2.2 52.92 -10.29 26.46 -9.55 52.91 -20.59 52.92 -19.1 26.46 -8.84 52.92 -19.84 26.45 -13.23 52.92 -32.33 52.92 -33.08 52.91 -25.71 26.46 -12.49 26.46 -11.04 52.92 -25.71 26.46 -14.71 26.45 -11.75 26.46 -14.71 26.46 -11.75 26.46 -13.97 52.92 -22.78 52.91 -20.58 52.92 -22.79 26.46 -13.22 52.91 -22.79 52.92 -20.58 26.46 -11.03 52.92 -21.3 52.91 -20.59 52.92 -23.52 49.98 -30.13 21.3 -20.56 13.97 -10.29 20.58 -37.5 0 0zm3122.09 -423.33l20.58 38.95 13.97 13.23 21.3 22.78 47.78 41.17 22.78 22.04 22.04 22.78 40.43 50.72 19.1 26.46 37.5 52.91 16.16 26.46 21.3 52.92 5.16 26.46 0.74 52.91 -4.42 26.46 -6.61 26.46 -26.46 52.17 -41.88 47.79 -25.01 21.3 -52.17 35.29 -52.92 27.18 -26.46 11.03 -26.46 11.77 -52.91 19.85 -52.92 15.42 -26.46 5.88 -26.46 6.61 -52.91 8.1 -26.46 1.45 -26.46 0.74 -52.92 0 -52.91 0 -52.92 -2.19 -52.92 -8.1 -26.45 -5.87 -52.92 -8.81 -26.46 -2.97 -52.92 -11 -52.91 -20.59 -26.46 -13.97 -52.92 -26.46 -26.46 -11.74 -26.45 -14.72 -26.46 -11.74 -26.46 -14.71 -26.46 -12.49 -52.92 -30.14 -52.91 -32.33 -52.92 -30.14 -52.92 -27.2 -26.45 -11.74 -26.46 -14.71 -26.46 -12.49 -26.46 -15.43 -52.92 -30.87 -52.91 -27.94 -26.46 -9.56 -52.92 -2.19 -52.91 13.23 -26.46 8.81 -52.92 18.39 -24.98 8.81 -26.45 12.49 -14.71 5.15 -39.69 25.72 9.55 38.95 9.55 13.23 36.75 41.17 49.98 32.33 26.46 12.49 26.46 14.71 26.46 11.75 26.45 13.97 52.92 22.78 52.92 20.58 26.46 11.03 52.91 19.85 26.46 8.07 52.92 19.1 26.46 11.77 52.91 24.24 26.46 11.03 52.92 23.53 26.46 13.97 26.45 11.74 26.46 14.71 26.46 12.49 26.46 15.43 52.92 29.39 52.91 26.46 26.46 11.03 26.46 12.49 26.46 11.04 26.46 13.97 26.45 11.74 26.46 14.71 26.46 11.75 26.46 13.97 52.92 21.33 26.45 7.33 26.46 8.09 26.46 5.88 52.92 13.22 26.46 7.36 52.91 12.49 26.46 4.42 26.46 3.67 52.92 0 52.91 -8.09 26.46 -5.88 52.92 -10.29 26.46 -5.13 52.91 -11.03 26.46 -5.16 52.92 -11.01 26.46 -6.61 52.91 -20.59 26.46 -13.23 52.92 -21.32 26.46 -8.07 52.91 -19.85 26.46 -13.23 52.92 -31.61 26.46 -16.17 52.91 -27.17 52.92 -23.52 26.46 -11.04 26.46 -13.97 26.45 -12.49 52.92 -29.39 26.46 -14.71 26.46 -11.75 52.91 -13.97 52.92 -2.94 26.46 0 52.92 0 26.45 0 26.46 0 52.92 -2.19 52.92 -11.04 52.17 -26.45 24.26 -19.85 20.59 -22.04 26.46 -50.72 5.87 -52.91 -10.29 -52.92 -26.46 -52.92 -41.88 -52.91 -25.01 -25.72 -25.71 -25 -52.92 -42.63 -26.46 -16.17 -26.46 -15.42 -26.46 -11.03 -26.45 -11.04 -52.92 -15.42 -26.46 -5.88 -52.92 -13.22 -52.91 -13.23 -26.46 -6.62 -52.92 -8.09 -52.91 -2.2 -52.92 -0.74 -26.46 -1.46 -52.92 -8.09 -52.91 -11.04 -52.92 -11 -26.46 -6.62 -26.46 -9.55 -52.91 -20.58 -52.92 -20.59 -26.46 -11.75 -26.46 -11.03 -26.45 -13.97 -26.46 -11.75 -26.46 -13.97 -24.98 -10.29 -41.17 -15.42 -39.68 -7.36z"/>
  </g>
  <polygon class="fil0" points="10486.77,14043.02 10486.77,14360.52 10505.87,14339.94 10506.61,14325.97 10511.75,14304.67 10512.49,14280.4 10513.23,14254.69 10513.23,14201.77 10513.23,14148.85 10512.49,14123.14 10511.75,14098.87 10506.61,14077.58 10505.87,14063.61 "/>
  <polygon class="fil1" points="14640.73,14201.77 14634.11,14239.98 14625.3,14269.4 14614.27,14307.6 14653.96,14333.32 14667.19,14337.74 14706.88,14353.17 14746.56,14360.52 14745.82,14320.83 14737.75,14280.4 14712.75,14237.04 14679.68,14211.32 "/>
  <polygon class="fil0" points="6650.31,14545.73 6670.9,14582.48 6684.87,14592.03 6706.17,14610.39 6756.15,14638.33 6809.06,14664.05 6835.52,14675.82 6888.44,14695.67 6941.35,14713.29 6967.81,14722.13 7020.73,14741.23 7047.19,14752.26 7100.1,14771.37 7126.56,14777.98 7179.48,14789.73 7205.94,14796.34 7258.85,14814.73 7285.31,14825.02 7338.23,14840.45 7364.69,14846.32 7391.15,14853.68 7417.6,14859.55 7470.52,14873.52 7496.98,14881.59 7523.44,14889.69 7549.9,14898.5 7629.27,14924.96 7708.65,14951.41 7735.1,14960.25 7788.02,14979.35 7814.48,14990.39 7867.4,15011.69 7920.31,15030.79 7946.77,15039.63 7999.69,15057.25 8052.6,15077.09 8079.06,15088.87 8131.98,15111.65 8158.44,15119.72 8184.9,15124.88 8211.35,15127.07 8264.27,15128.55 8317.19,15133.69 8370.1,15143.98 8396.56,15148.4 8423.02,15152.07 8475.94,15154.27 8502.4,15154.27 8555.31,15153.53 8581.77,15152.07 8634.69,15141.78 8687.6,15123.39 8714.06,15113.1 8766.98,15096.94 8793.44,15089.61 8846.35,15068.28 8872.81,15055.05 8925.73,15032.27 8978.65,15011.69 9005.1,14999.94 9031.56,14988.91 9084.48,14963.19 9110.94,14948.48 9137.4,14936.73 9190.31,14909.53 9216.77,14894.11 9243.23,14879.4 9296.15,14847.06 9349.06,14816.93 9375.52,14804.44 9401.98,14789.73 9428.44,14777.98 9454.9,14764.01 9507.81,14741.23 9560.73,14720.65 9613.65,14697.86 9640.1,14684.64 9693.02,14661.85 9719.48,14652.3 9745.94,14642.75 9798.85,14624.36 9851.77,14603.78 9878.23,14594.23 9904.69,14583.93 9931.15,14576.61 9984.06,14560.44 10010.52,14550.15 10063.44,14529.56 10116.35,14508.98 10141.33,14497.95 10167.79,14487.68 10182.5,14479.58 10222.19,14466.35 10201.6,14447.25 10187.63,14446.51 10142.07,14442.83 10089.9,14450.93 10063.44,14458.26 10010.52,14476.65 9984.06,14487.68 9931.15,14508.98 9878.23,14529.56 9825.31,14550.86 9798.85,14561.9 9772.4,14571.45 9719.48,14589.84 9693.02,14599.39 9666.56,14608.94 9613.65,14631.72 9587.19,14644.95 9534.27,14667.73 9481.35,14688.31 9428.44,14709.61 9401.98,14720.65 9349.06,14741.23 9322.6,14752.98 9296.15,14764.01 9243.23,14789.73 9216.77,14804.44 9190.31,14816.19 9163.85,14830.9 9137.4,14842.64 9110.94,14856.61 9058.02,14880.14 9031.56,14891.17 8978.65,14917.63 8952.19,14932.31 8899.27,14958.03 8846.35,14979.35 8793.44,15000.65 8766.98,15011.69 8714.06,15030.79 8661.15,15048.44 8608.23,15063.86 8581.77,15069.02 8555.31,15072.7 8502.4,15074.9 8449.48,15074.9 8396.56,15074.9 8370.1,15074.16 8343.65,15072.7 8290.73,15064.6 8237.81,15053.57 8184.9,15043.3 8158.44,15037.4 8131.98,15030.08 8105.52,15021.98 8052.6,15004.33 7973.23,14977.87 7946.77,14969.06 7920.31,14960.97 7893.85,14952.9 7867.4,14946.28 7814.48,14932.31 7788.02,14924.24 7735.1,14908.05 7708.65,14899.98 7682.19,14893.37 7629.27,14877.94 7602.81,14867.65 7549.9,14848.52 7523.44,14841.19 7496.98,14833.09 7470.52,14827.22 7417.6,14813.99 7391.15,14805.89 7364.69,14798.57 7338.23,14788.27 7285.31,14767.69 7232.4,14749.3 7179.48,14734.62 7153.02,14726.52 7126.56,14719.19 7100.1,14708.9 7047.19,14688.31 6994.27,14669.21 6967.81,14660.37 6914.9,14642.75 6888.44,14633.91 6861.98,14624.36 6835.52,14614.81 6782.6,14592.03 6756.15,14578.8 6731.17,14568.51 6690,14553.08 "/>
  <g>
   <path class="fil1" d="M9878.23 14598.65l20.58 18.36 13.97 -0.72 21.3 1.46 24.26 -4.39 25.72 -6.62 52.92 -18.39 52.92 -22.78 26.45 -13.23 52.92 -21.32 51.44 -15.43 26.45 -6.61 54.4 -16.17 -20.58 -19.1 -13.97 -0.74 -45.56 -3.68 -52.18 9.55 -52.92 19.11 -26.45 11.03 -52.92 20.58 -26.46 11.75 -26.46 11.03 -51.43 24.27 -14.71 8.81 -39.69 13.23 0 0zm661.46 -105.84l-2.2 39.69 -3.68 14.71 -4.41 26.46 -5.88 24.98 -8.09 52.91 -1.46 24.98 -0.74 26.46 0 54.4 26.46 -20.59 6.61 -13.97 16.17 -21.3 13.97 -24.26 34.53 -49.98 40.42 -44.08 22.79 -18.39 25 -16.16 52.17 -20.59 26.46 -3.68 52.92 5.9 52.92 16.17 52.91 20.58 52.92 21.3 52.92 20.59 52.91 22.78 26.46 13.23 52.92 22.78 52.91 20.58 52.92 20.59 26.46 10.29 26.46 7.33 52.91 16.16 52.92 19.85 26.46 11.03 52.92 20.59 52.91 22.78 26.46 13.23 52.92 22.78 26.46 9.55 51.43 16.16 41.17 8.84 39.69 2.2 -20.59 -32.33 -13.97 -8.84 -21.3 -15.43 -24.26 -11.74 -52.17 -21.33 -52.92 -21.3 -26.46 -11.03 -52.92 -20.59 -52.91 -21.3 -52.92 -20.58 -52.92 -16.91 -26.45 -6.61 -26.46 -8.1 -26.46 -7.33 -26.46 -10.29 -52.92 -20.58 -52.91 -20.59 -26.46 -11.75 -26.46 -11.03 -26.46 -13.97 -26.46 -11.75 -26.45 -14.71 -26.46 -11.74 -52.92 -26.46 -52.92 -24.27 -26.45 -9.55 -52.92 -5.13 -26.46 2.94 -26.46 5.13 -52.91 8.1 -26.46 1.45 -52.92 0.74 -24.98 0 -80.85 0z"/>
  </g>
  <polygon class="fil0" points="10910.1,14466.35 10930.69,14498.69 10944.66,14508.24 10965.96,14524.4 11015.94,14551.6 11042.4,14565.57 11095.31,14586.9 11121.77,14594.23 11148.23,14602.32 11174.69,14608.94 11227.6,14625.84 11280.52,14647.14 11306.98,14658.18 11333.44,14671.41 11386.35,14694.19 11439.27,14714.77 11492.19,14736.07 11518.65,14747.1 11571.56,14767.69 11598.02,14778.72 11650.94,14800.02 11703.85,14820.6 11756.77,14844.13 11809.69,14873.52 11862.6,14905.85 11889.06,14920.56 11915.52,14935.99 11941.98,14948.48 11994.9,14974.94 12021.35,14989.65 12047.81,15001.39 12074.27,15016.11 12127.19,15041.82 12153.65,15052.86 12180.1,15064.6 12233.02,15085.19 12285.94,15106.49 12312.4,15117.52 12365.31,15136.62 12418.23,15156.47 12444.69,15168.24 12497.6,15191.02 12550.52,15204.25 12603.44,15207.19 12629.9,15207.19 12682.81,15207.19 12735.73,15207.19 12762.19,15206.45 12788.65,15204.99 12841.56,15196.9 12894.48,15185.86 12947.4,15174.86 12973.85,15168.24 13000.31,15158.69 13053.23,15138.1 13106.15,15119.72 13159.06,15105.03 13185.52,15096.94 13211.98,15089.61 13264.9,15070.48 13291.35,15060.19 13344.27,15044.02 13370.73,15036.69 13397.19,15026.4 13450.1,15005.81 13503.02,14986.71 13555.94,14969.06 13582.4,14960.97 13608.85,14952.9 13635.31,14946.28 13688.23,14932.31 13741.15,14916.15 13794.06,14898.5 13820.52,14888.95 13846.98,14879.4 13873.44,14868.36 13926.35,14849.26 13952.81,14842.64 14005.73,14831.64 14058.65,14818.41 14111.56,14801.5 14138.02,14792.66 14164.48,14783.85 14217.4,14767.69 14243.85,14760.33 14296.77,14741.97 14323.23,14730.2 14376.15,14705.96 14427.58,14682.44 14442.29,14677.28 14481.98,14651.56 14461.39,14634.66 14447.42,14637.59 14426.13,14637.59 14401.86,14644.21 14349.69,14661.85 14323.23,14672.89 14270.31,14694.19 14243.85,14703.74 14217.4,14713.29 14164.48,14730.94 14005.73,14783.85 13952.81,14801.5 13926.35,14810.31 13873.44,14826.48 13846.98,14833.09 13794.06,14848.52 13741.15,14867.65 13714.69,14877.94 13661.77,14893.37 13635.31,14899.98 13582.4,14916.15 13555.94,14924.96 13503.02,14942.6 13476.56,14950.7 13450.1,14958.77 13397.19,14972.74 13370.73,14978.61 13344.27,14985.97 13317.81,14991.84 13291.35,14999.94 13264.9,15007.27 13238.44,15017.56 13211.98,15027.11 13185.52,15038.15 13132.6,15056.53 13079.69,15069.76 13026.77,15080.03 13000.31,15085.93 12973.85,15093.26 12920.94,15109.45 12894.48,15116.78 12841.56,15125.62 12815.1,15127.07 12762.19,15127.81 12709.27,15127.81 12656.35,15127.81 12603.44,15125.62 12550.52,15117.52 12524.06,15110.91 12497.6,15104.29 12444.69,15085.93 12418.23,15074.16 12365.31,15050.63 12312.4,15030.79 12285.94,15021.24 12259.48,15011.69 12206.56,14988.91 12153.65,14963.19 12127.19,14948.48 12074.27,14922.02 12047.81,14910.27 12021.35,14895.56 11994.9,14883.81 11968.44,14869.1 11915.52,14843.39 11889.06,14832.35 11836.15,14808.83 11809.69,14796.34 11756.77,14771.37 11730.31,14759.59 11703.85,14749.3 11650.94,14730.94 11624.48,14722.13 11571.56,14703.74 11545.1,14694.19 11518.65,14682.44 11492.19,14671.41 11465.73,14658.18 11412.81,14635.4 11386.35,14625.84 11359.9,14616.29 11333.44,14607.46 11280.52,14588.35 11254.06,14577.32 11201.15,14556.02 11148.23,14537.63 11095.31,14522.95 11068.85,14514.85 11042.4,14507.52 11015.94,14497.23 10964.5,14478.84 10949.79,14473.71 "/>
  <polygon class="fil2" points="11165.88,14607.46 11174.69,14616.29 11183.5,14616.29 11174.69,14607.46 "/>
  <polygon class="fil1" points="9349.06,14810.31 9369.65,14827.22 9383.62,14824.28 9404.92,14825.02 9429.18,14819.12 9454.9,14813.99 9507.81,14798.57 9534.27,14788.27 9587.19,14767.69 9640.1,14747.1 9693.02,14724.32 9719.48,14711.09 9772.4,14688.31 9823.83,14669.21 9838.54,14663.31 9878.23,14651.56 9857.64,14632.46 9843.67,14631.72 9798.11,14628.78 9772.4,14633.2 9745.94,14641.27 9693.02,14662.6 9666.56,14672.15 9613.65,14689.77 9560.73,14709.61 9534.27,14720.65 9481.35,14741.23 9429.92,14763.27 9403.46,14777.98 9388.75,14783.85 "/>
  <polygon class="fil1" points="6941.35,14730.94 6950.91,14764.01 6976.62,14793.41 7021.47,14826.48 7073.65,14856.61 7100.1,14869.1 7153.02,14895.56 7179.48,14910.27 7205.94,14922.02 7258.85,14949.22 7285.31,14964.64 7311.77,14979.35 7364.69,15011.69 7391.15,15026.4 7417.6,15041.82 7470.52,15069.02 7496.98,15080.77 7523.44,15095.48 7576.35,15121.2 7602.81,15132.23 7629.27,15143.98 7682.19,15164.56 7735.1,15185.86 7761.56,15196.9 7814.48,15215.28 7867.4,15228.51 7920.31,15239.52 7946.77,15246.13 7999.69,15264.52 8026.15,15274.07 8052.6,15279.95 8079.06,15284.37 8131.98,15286.56 8184.9,15285.82 8211.35,15284.37 8236.33,15280.69 8277.5,15271.14 8317.19,15260.1 8317.19,15180.73 8277.5,15167.5 8262.79,15159.4 8236.33,15149.14 8211.35,15138.1 8184.9,15128.55 8131.98,15112.39 8079.06,15102.84 8052.6,15099.87 7999.69,15091.06 7973.23,15084.45 7920.31,15071.22 7893.85,15064.6 7840.94,15047.7 7814.48,15038.15 7788.02,15027.11 7735.1,15005.81 7682.19,14986.71 7655.73,14977.87 7629.27,14968.32 7602.81,14958.77 7549.9,14937.47 7523.44,14926.44 7470.52,14907.34 7444.06,14898.5 7391.15,14879.4 7364.69,14868.36 7311.77,14847.06 7258.85,14826.48 7232.4,14815.45 7179.48,14794.15 7126.56,14773.56 7100.1,14762.53 7047.19,14743.43 7022.21,14737.55 6981.04,14731.68 "/>
  <polygon class="fil0" points="9401.98,16053.85 9441.67,16054.59 9482.84,16059.73 9534.27,16070.02 9587.19,16078.12 9640.1,16081.05 9666.56,16082.51 9719.48,16090.6 9772.4,16101.64 9825.31,16111.9 9851.77,16117.06 9904.69,16129.55 9931.15,16136.91 9957.6,16142.78 9984.06,16149.4 10036.98,16157.49 10063.44,16158.95 10116.35,16161.88 10169.27,16169.98 10195.73,16175.85 10222.19,16181.01 10275.1,16191.28 10301.56,16196.44 10328.02,16202.31 10379.46,16210.41 10405.91,16211.86 10460.31,16212.6 10439.73,16186.89 10425.76,16182.47 10404.46,16170.72 10380.2,16164.11 10328.02,16147.94 10301.56,16137.65 10248.65,16119.26 10195.73,16108.97 10169.27,16107.51 10142.81,16106.77 10089.9,16106.03 10063.44,16104.57 10010.52,16096.48 9984.06,16090.6 9957.6,16086.19 9931.15,16081.79 9904.69,16078.83 9851.77,16070.02 9825.31,16064.15 9772.4,16055.34 9719.48,16047.98 9693.02,16043.56 9666.56,16037.69 9613.65,16029.59 9587.19,16028.14 9534.27,16027.4 9482.84,16027.4 9401.98,16027.4 9401.98,15946.54 9401.98,15921.56 9401.98,15895.1 9404.18,15842.19 9407.85,15815.73 9413.01,15789.27 9428.44,15736.35 9444.6,15683.44 9459.31,15630.52 9467.38,15604.06 9494.58,15551.15 9536.47,15498.97 9561.47,15474.71 9587.19,15454.12 9640.1,15427.66 9693.02,15421.79 9745.94,15429.15 9772.4,15435.02 9797.37,15439.44 9838.54,15444.57 9878.23,15445.31 9878.23,15471.77 9904.69,15524.69 9984.06,15524.69 9990.68,15564.38 9995.1,15579.09 10012.72,15630.52 10039.18,15683.44 10073.73,15736.35 10112.68,15789.27 10133.26,15815.73 10152.36,15842.19 10172.95,15868.65 10210.44,15920.08 10248.65,15974.48 10460.31,15974.48 10460.31,14836.77 10420.62,14823.54 10379.46,14802.96 10354.48,14788.27 10301.56,14759.59 10275.1,14747.84 10222.19,14733.87 10169.27,14730.94 10116.35,14733.13 10063.44,14741.97 10036.98,14749.3 9984.06,14765.49 9957.6,14773.56 9931.15,14780.18 9878.23,14795.6 9825.31,14815.45 9798.85,14827.22 9772.4,14838.25 9719.48,14864.71 9666.56,14892.62 9640.1,14905.11 9587.19,14924.96 9534.27,14942.6 9507.81,14951.41 9454.9,14969.06 9401.98,14986.71 9349.06,15005.81 9322.6,15016.85 9269.69,15036.69 9243.23,15044.76 9190.31,15066.09 9163.85,15081.51 9110.94,15115.32 9085.22,15130.01 9037.44,15155.75 8994.81,15182.93 8949.99,15218.22 8925.73,15239.52 8901.47,15262.3 8858.84,15313.02 8825.03,15365.94 8810.34,15392.4 8795.63,15418.85 8775.08,15471.77 8769.18,15498.23 8761.11,15551.15 8756.69,15577.6 8750.81,15604.06 8742.72,15656.98 8740.52,15709.9 8740.52,15736.35 8740.52,15762.81 8740.52,15815.73 8740.52,16000.94 8740.52,16053.85 8741.26,16106.77 8742.72,16133.23 8750.81,16186.15 8756.69,16212.6 8764.78,16265.52 8766.24,16291.98 8766.98,16318.44 8767.72,16371.35 8769.18,16397.81 8777.27,16450.73 8783.15,16477.19 8791.96,16530.1 8794.92,16556.56 8803.73,16609.48 8810.34,16635.94 8816.96,16662.4 8836.06,16715.31 8849.29,16741.77 8881.62,16793.95 8917.63,16840.99 8958.06,16875.54 8980.84,16887.29 9031.56,16896.1 9084.48,16889.49 9137.4,16871.87 9188.12,16845.41 9210.9,16828.5 9252.78,16791.01 9291.73,16751.32 9310.12,16731.48 9336.57,16686.66 9344.64,16661.66 9358.61,16609.48 9365.23,16583.02 9375.52,16530.1 9385.81,16477.19 9391.69,16450.73 9399.78,16397.81 9401.24,16371.35 9401.98,16318.44 9401.98,16265.52 "/>
  <polygon class="fil1" points="12841.56,15260.1 12841.56,15313.02 12895.96,15328.45 12922.42,15333.61 12947.4,15337.28 13000.31,15337.28 13053.23,15329.19 13079.69,15323.31 13132.6,15313.02 13185.52,15301.99 13211.98,15294.66 13264.9,15278.47 13317.81,15263.78 13344.27,15255.69 13370.73,15248.36 13397.19,15238.06 13450.1,15218.94 13476.56,15211.61 13529.48,15195.44 13582.4,15174.11 13608.85,15160.14 13661.77,15133.69 13688.23,15121.94 13741.15,15094.74 13767.6,15079.31 13794.06,15065.34 13820.52,15049.92 13873.44,15023.46 13899.9,15012.43 13952.81,14988.91 13979.27,14974.94 14005.73,14962.45 14032.19,14947.02 14058.65,14932.31 14085.1,14915.41 14138.02,14880.88 14190.2,14844.87 14214.46,14827.22 14235.76,14805.89 14249.73,14794.89 14270.31,14757.4 14230.63,14759.59 14215.91,14763.27 14189.46,14768.43 14164.48,14775.76 14138.02,14783.85 14085.1,14801.5 14032.19,14819.12 14005.73,14827.96 13979.27,14837.51 13952.81,14847.06 13899.9,14869.84 13873.44,14883.07 13820.52,14905.85 13767.6,14926.44 13714.69,14947.74 13688.23,14958.77 13635.31,14979.35 13582.4,15000.65 13555.94,15011.69 13529.48,15021.24 13503.02,15030.79 13450.1,15049.18 13397.19,15069.76 13370.73,15079.31 13344.27,15089.61 13317.81,15096.94 13264.9,15111.65 13211.98,15127.81 13159.06,15143.24 13132.6,15149.14 13079.69,15159.4 13026.77,15172.63 12973.85,15191.02 12947.4,15202.77 12922.42,15213.06 12895.96,15227.77 12881.25,15233.65 "/>
  <polygon class="fil2" points="7197.13,14792.66 7205.94,14801.5 7214.75,14801.5 7205.94,14792.66 "/>
  <g>
   <path class="fil1" d="M8555.31 15154.27l-15.42 54.4 -5.16 26.46 -3.68 24.97 -2.2 52.92 0 26.46 2.2 52.92 8.1 51.43 9.55 41.17 6.61 39.69 25.72 -20.59 5.16 -13.97 12.49 -21.3 9.55 -24.26 22.04 -52.17 11.77 -26.46 14.69 -26.46 14.71 -26.46 34.53 -52.17 18.38 -25.01 38.95 -44.08 38.95 -35.29 11.03 -10.3 33.07 -18.36 -20.58 -18.36 -13.97 0.71 -45.56 4.42 -52.18 17.65 -26.46 9.55 -51.43 10.29 -41.17 2.2 -39.69 0 0 0zm3810 26.46l20.59 39.69 13.23 14.71 19.84 26.46 39.69 51.43 32.33 52.92 12.49 26.46 26.46 52.91 14.71 25.72 11 24.26 15.46 21.3 5.87 13.97 26.46 20.59 19.1 -39.69 0.74 -14.71 5.13 -26.46 0.75 -24.98 0.74 -52.91 0 -52.92 0 -105.83 -39.69 -11.75 -14.71 -5.9 -26.46 -8.81 -51.44 -15.43 -51.43 -8.83 -41.17 -2.2 -39.69 0z"/>
  </g>
  <g>
   <path class="fil0" d="M12629.9 15418.85l0 54.4 -0.74 51.44 -1.46 26.46 -8.1 52.91 -5.87 26.46 -8.1 52.92 -1.45 26.46 -0.74 52.91 -0.74 26.46 -1.46 26.46 -8.09 52.92 -5.88 26.45 -8.09 52.92 -1.46 26.46 -0.74 26.46 0 52.91 0 132.3 0 396.87 19.1 -20.58 0.74 -13.97 5.14 -21.3 0.74 -24.26 0.74 -25.72 0 -52.92 0 -52.92 0 -132.29 0 -52.91 0 -26.46 2.19 -52.92 8.1 -52.92 6.61 -26.45 5.88 -26.46 7.35 -26.46 5.88 -26.46 6.61 -26.46 8.1 -52.91 1.45 -26.46 0.74 -52.92 0 -52.92 0 -79.37 0 -79.38 0 -26.45 -0.74 -52.18 -0.74 -24.26 -5.13 -21.3 -0.74 -13.97 -19.1 -20.59 0 0zm-6058.96 105.84l0 80.85 0 51.44 0.74 52.92 1.45 26.45 8.1 52.92 5.87 26.46 8.1 52.92 2.2 52.91 0 26.46 2.19 52.92 3.68 26.46 10.29 52.91 5.16 26.46 10.27 52.92 5.16 26.46 10.29 52.91 3.68 26.46 4.39 52.92 3.68 26.46 5.16 26.45 15.42 52.92 18.36 49.98 9.58 20.59 13.94 16.16 6.62 9.55 30.88 9.55 -7.36 -39.68 -5.13 -14.71 -18.39 -51.44 -9.55 -26.46 -6.62 -26.46 -5.87 -26.45 -10.29 -52.92 -12.49 -52.92 -7.36 -26.46 -5.87 -26.45 -6.62 -26.46 -8.09 -52.92 -1.46 -26.46 -0.74 -52.91 -0.74 -52.92 -1.45 -26.46 -8.1 -52.92 -5.87 -26.45 -5.16 -26.46 -10.27 -52.92 -5.16 -26.46 -10.29 -52.91 -3.68 -26.46 -1.45 -26.46 -1.49 -52.18 -0.74 -24.26 -5.13 -21.3 -0.74 -13.97 -19.1 -20.58 0 0zm1957.91 26.46l0 185.2 0 52.92 0.74 26.46 1.46 26.46 8.1 52.91 5.87 26.46 8.1 52.92 1.45 26.46 0.74 52.91 0 79.38 0 264.58 19.11 -20.58 0.74 -13.97 5.13 -21.3 0.74 -24.26 0.74 -52.18 0 -26.46 0 -79.37 0 -211.67 0 -79.37 0 -26.46 0 -52.92 -0.74 -26.46 -1.46 -26.46 -8.09 -52.91 -5.88 -26.46 -5.15 -25.72 -11.01 -45.56 -1.48 -13.97 -19.11 -20.58z"/>
  </g>
  <polygon class="fil0" points="6407.12,15739.74 6520.01,16487.72 6546.81,16428.61 6518.44,16231.44 6502.04,16093.03 6454.22,15762.88 "/>
  <polygon class="fil1" points="8423.02,15683.44 8409.79,15723.13 8400.98,15737.84 8389.95,15764.29 8376.72,15789.27 8353.94,15842.19 8332.61,15895.1 8303.96,15947.28 8284.11,15972.28 8237.07,16017.1 8211.35,16036.95 8184.9,16057.53 8132.72,16097.22 8107.72,16117.06 8065.83,16161.88 8039.37,16212.6 8032.76,16239.06 8026.89,16291.98 8026.15,16318.44 8026.15,16344.9 8028.34,16397.81 8032.02,16424.27 8042.31,16477.19 8045.99,16503.65 8048.19,16530.1 8039.37,16583.02 8015.85,16635.94 8001.88,16660.91 7990.14,16687.37 7982.04,16702.08 7973.23,16741.77 7933.54,16743.97 7918.83,16747.64 7892.37,16752.06 7867.4,16757.94 7814.48,16766.03 7788.02,16767.49 7735.1,16768.23 7682.19,16768.23 7629.27,16768.23 7576.35,16767.49 7549.9,16766.03 7496.98,16757.94 7470.52,16752.06 7444.06,16746.9 7391.15,16736.64 7364.69,16731.48 7338.23,16725.6 7311.77,16720.45 7258.85,16710.18 7232.4,16705.02 7179.48,16694.73 7153.02,16691.05 7101.59,16688.85 7075.13,16688.85 7020.73,16688.85 7030.28,16726.35 7056,16758.68 7076.58,16776.33 7126.56,16810.85 7153.02,16825.56 7205.94,16853.48 7232.4,16867.45 7258.85,16878.48 7285.31,16890.23 7338.23,16910.81 7364.69,16921.85 7417.6,16943.15 7444.06,16953.44 7470.52,16964.47 7523.44,16990.93 7576.35,17022.52 7629.27,17052.66 7655.73,17065.89 7708.65,17095.28 7735.1,17110.71 7788.02,17137.16 7814.48,17148.2 7867.4,17171.72 7893.85,17184.95 7946.77,17207.73 7999.69,17226.12 8026.15,17233.45 8079.06,17242.28 8131.98,17244.48 8184.9,17244.48 8237.81,17244.48 8290.73,17242.28 8317.19,17237.86 8343.65,17231.99 8370.1,17221.7 8396.56,17210.67 8447.28,17179.07 8489.91,17136.45 8521.5,17085.73 8532.53,17059.27 8542.82,17032.81 8553.12,16979.9 8554.57,16953.44 8553.12,16900.52 8545.02,16847.6 8538.41,16821.15 8532.53,16794.69 8525.18,16768.23 8512.69,16715.31 8507.53,16688.85 8497.26,16635.94 8492.1,16609.48 8481.81,16556.56 8478.13,16530.1 8475.94,16477.19 8475.94,16424.27 8475.94,16371.35 8475.94,16239.06 8475.94,15683.44 "/>
  <polygon class="fil0" points="14561.35,15683.44 14559.16,15737.84 14551.06,15789.27 14540.77,15842.19 14537.09,15868.65 14532.7,15921.56 14529.02,15948.02 14524.6,15974.48 14514.31,16027.4 14509.18,16080.31 14507.7,16133.23 14506.24,16159.69 14498.15,16212.6 14492.27,16239.06 14487.85,16265.52 14483.46,16291.98 14480.5,16318.44 14470.95,16371.35 14463.62,16397.81 14446.71,16450.73 14437.87,16477.19 14418.77,16530.1 14397.47,16581.54 14389.38,16596.25 14376.15,16635.94 14408.48,16626.39 14434.2,16600.67 14448.17,16580.08 14470.23,16530.1 14477.56,16503.65 14491.53,16450.73 14498.89,16424.27 14504.76,16397.81 14512.12,16371.35 14524.6,16318.44 14529.76,16291.98 14540.03,16239.06 14545.19,16212.6 14551.06,16186.15 14559.16,16133.23 14561.35,16080.31 14563.55,16027.4 14571.65,15974.48 14577.52,15948.02 14585.62,15895.1 14587.07,15868.65 14587.81,15842.19 14587.81,15789.27 14586.33,15739.29 14581.2,15717.99 14580.46,15704.02 "/>
  <polygon class="fil1" points="12682.81,15762.81 12682.81,15843.67 12682.81,15895.1 12683.55,15948.02 12685.01,15974.48 12693.1,16027.4 12698.98,16053.85 12707.07,16106.77 12708.53,16133.23 12709.27,16186.15 12709.27,16212.6 12709.27,16291.98 12709.27,16371.35 12709.27,16397.81 12708.53,16450.73 12707.07,16477.19 12698.98,16530.1 12692.36,16556.56 12686.49,16583.02 12679.13,16609.48 12673.26,16635.94 12666.65,16662.4 12657.84,16715.31 12654.87,16741.77 12646.06,16794.69 12640.19,16821.15 12632.09,16874.06 12630.64,16900.52 12629.9,16926.98 12629.9,16979.9 12630.64,17032.81 12632.09,17059.27 12640.93,17111.45 12658.55,17159.23 12685.01,17201.11 12701.92,17221.7 12741.6,17258.45 12789.39,17284.17 12815.1,17290.78 12841.56,17295.2 12894.48,17297.4 12920.94,17297.4 12947.4,17297.4 13000.31,17297.4 13053.23,17296.65 13079.69,17295.2 13132.6,17284.91 13185.52,17265.8 13211.98,17254.77 13264.9,17234.19 13291.35,17223.15 13317.81,17212.89 13370.73,17190.08 13423.65,17163.62 13450.1,17148.2 13503.02,17118.8 13555.94,17091.6 13582.4,17079.86 13608.85,17065.14 13635.31,17052.66 13661.77,17037.23 13688.23,17023.26 13714.69,17007.84 13767.6,16982.09 13794.06,16971.8 13846.98,16952.7 13873.44,16943.15 13899.9,16932.11 13952.81,16910.81 14005.73,16889.49 14058.65,16860.83 14108.63,16820.41 14143.89,16781.46 14164.48,16741.77 14083.62,16741.77 14032.19,16741.77 13979.27,16742.51 13952.81,16743.97 13899.9,16752.06 13873.44,16758.68 13846.98,16764.55 13820.52,16771.91 13767.6,16785.14 13741.15,16791.01 13688.23,16804.24 13661.77,16810.85 13608.85,16818.95 13555.94,16821.89 13529.48,16823.34 13476.56,16831.44 13450.1,16837.31 13397.19,16843.19 13344.27,16835.12 13291.35,16813.79 13264.9,16798.37 13239.18,16782.2 13192.14,16739.57 13172.29,16714.57 13145.83,16662.4 13139.22,16635.94 13134.8,16609.48 13132.6,16556.56 13132.6,16530.1 13132.6,16477.19 13132.6,16424.27 13132.6,16397.81 13132.6,16344.9 13131.86,16318.44 13129.67,16291.98 13113.5,16239.06 13097.34,16213.34 13076.75,16188.34 13026.77,16144.26 12973.85,16106.77 12923.13,16069.28 12901.09,16047.98 12880.51,16025.2 12848.18,15974.48 12835.69,15948.02 12821.72,15921.56 12798.94,15868.65 12779.84,15817.21 12773.94,15802.5 12762.19,15762.81 "/>
  <polygon class="fil0" points="7364.69,16450.73 7385.27,16469.09 7399.24,16468.38 7420.54,16469.83 7470.52,16460.28 7523.44,16446.31 7549.9,16438.98 7576.35,16428.69 7629.27,16409.56 7682.19,16393.39 7708.65,16386.07 7735.1,16375.77 7788.02,16356.64 7840.94,16341.22 7867.4,16335.34 7893.85,16327.99 7918.83,16322.86 7945.29,16314.02 7960,16311.82 7999.69,16291.98 7979.1,16273.62 7965.13,16274.33 7943.83,16272.88 7893.85,16283.88 7867.4,16291.98 7814.48,16309.63 7788.02,16318.44 7735.1,16334.6 7682.19,16348.57 7655.73,16355.19 7602.81,16371.35 7549.9,16389 7496.98,16406.62 7470.52,16415.46 7445.54,16424.27 7419.09,16433.08 7404.37,16438.98 "/>
  <polygon class="fil1" points="10513.23,16318.44 10516.17,16358.13 10530.14,16399.29 10542.62,16424.27 10577.18,16477.19 10598.48,16503.65 10646.26,16554.37 10698.44,16598.45 10724.9,16617.58 10777.81,16652.1 10804.27,16667.53 10857.19,16699.15 10910.1,16731.48 10936.56,16746.19 10963.02,16761.61 10989.48,16774.84 11042.4,16804.98 11095.31,16837.31 11121.77,16852.02 11148.23,16867.45 11201.15,16894.65 11227.6,16906.39 11254.06,16921.11 11280.52,16933.59 11306.98,16949.02 11333.44,16963.73 11386.35,16996.06 11412.81,17010.77 11439.27,17025.46 11492.19,17049.72 11518.65,17060.75 11571.56,17087.21 11624.48,17115.12 11650.94,17127.61 11703.85,17148.94 11730.31,17160.69 11756.77,17171.72 11783.23,17185.69 11836.15,17211.41 11889.06,17234.19 11941.98,17254.77 11994.9,17277.55 12021.35,17290.78 12074.27,17313.56 12127.19,17334.15 12180.1,17355.45 12206.56,17366.48 12259.48,17385.58 12312.4,17403.23 12365.31,17418.65 12391.77,17423.81 12443.21,17428.95 12457.92,17429.69 12497.6,17429.69 12497.6,17348.83 12497.6,17323.85 12498.35,17270.94 12499.8,17244.48 12507.9,17191.56 12513.77,17165.1 12521.87,17112.19 12523.32,17087.21 12524.06,17060.75 12524.06,17006.35 12497.6,17026.94 12491.73,17040.91 12477.02,17062.21 12456.44,17112.19 12448.37,17138.65 12426.33,17191.56 12409.42,17218.02 12364.57,17268 12312.4,17304.75 12285.94,17314.3 12259.48,17318.72 12206.56,17311.37 12153.65,17290.04 12127.19,17275.36 12100.73,17260.65 12074.27,17243.74 12021.35,17209.21 11968.44,17173.91 11941.98,17156.29 11889.06,17122.48 11862.6,17107.77 11836.15,17092.34 11809.69,17079.86 11783.23,17065.89 11730.31,17043.1 11677.4,17021.78 11624.48,16996.06 11571.56,16969.6 11518.65,16949.76 11492.19,16941.69 11439.27,16920.36 11412.81,16906.39 11359.9,16880.68 11306.98,16857.9 11254.06,16837.31 11227.6,16825.56 11201.15,16814.53 11174.69,16800.56 11148.23,16788.81 11121.77,16774.1 11095.31,16761.61 11042.4,16731.48 10989.48,16699.15 10936.56,16667.53 10883.65,16635.2 10830.73,16599.19 10804.27,16579.34 10751.35,16539.66 10699.18,16497.77 10674.18,16475.71 10630.1,16430.14 10610.97,16408.1 10575.7,16368.42 10556.59,16350.77 10546.3,16338.28 "/>
  <g>
   <path class="fil0" d="M13159.06 16318.44l0 52.91 39.69 0.74 41.17 5.14 24.98 5.16 52.91 15.42 26.46 8.81 52.92 17.65 26.46 8.1 26.45 8.07 52.92 13.97 26.46 6.61 52.92 16.17 52.91 17.65 52.92 17.62 26.46 8.83 52.91 19.11 26.46 11.03 52.92 19.1 24.98 5.88 41.17 5.87 39.68 0.74 -20.58 -25.72 -13.97 -5.16 -21.3 -12.48 -24.26 -8.82 -25.72 -9.55 -26.46 -8.83 -52.92 -17.62 -79.37 -26.46 -52.92 -17.65 -52.91 -16.17 -26.46 -6.61 -52.92 -13.97 -52.92 -16.91 -26.45 -9.55 -52.92 -21.3 -26.46 -11.03 -52.92 -18.39 -26.45 -7.33 -24.98 -5.16 -41.17 -5.13 -39.69 -0.74 0 0zm-4577.29 132.29l0 476.25 19.1 -20.59 0.74 -13.97 5.14 -21.29 0.74 -24.27 0.74 -25.71 0 -52.92 0 -26.46 0 -79.37 0 -52.92 0 -26.46 -0.74 -52.18 -0.74 -24.26 -5.14 -21.3 -0.74 -13.97 -19.1 -20.58 0 0zm2116.67 0l20.58 33.07 13.97 10.29 21.3 19.11 49.98 33.07 26.46 15.43 52.92 30.87 26.45 15.43 52.92 26.46 26.46 11.03 52.92 23.52 26.45 13.97 26.46 11.75 26.46 14.71 26.46 11.75 26.46 13.97 52.91 22.78 51.44 18.39 26.46 7.32 14.71 4.42 39.69 6.62 -20.59 -26.46 -13.97 -5.87 -45.56 -26.46 -25.72 -14.71 -26.46 -11.75 -52.91 -26.46 -26.46 -13.97 -26.46 -11.03 -26.46 -11.75 -26.46 -10.29 -52.91 -23.52 -52.92 -29.4 -26.46 -16.17 -26.46 -15.42 -52.91 -31.62 -26.46 -16.16 -51.44 -28.66 -41.16 -16.91 -39.69 -7.35 0 0zm-1005.42 317.5l20.59 16.91 13.97 -3.68 21.29 -0.74 24.27 -8.81 25.71 -8.81 52.92 -21.33 52.92 -22.04 26.46 -11.03 52.91 -25.72 24.98 -13.97 26.46 -11.03 14.71 -8.81 39.69 -13.23 -20.59 -18.36 -13.97 0.71 -45.56 4.42 -52.18 19.84 -52.91 25.72 -26.46 13.97 -26.46 11.03 -26.46 11.75 -51.43 19.84 -26.46 12.49 -14.71 5.16 -39.69 25.72z"/>
  </g>
  <polygon class="fil1" points="10751.35,16688.85 10760.91,16728.54 10786.62,16769.71 10831.47,16818.21 10882.16,16854.96 10923.33,16871.13 10963.02,16874.06 10960.08,16835.12 10943.92,16799.11 10927.75,16779.26 10907.17,16760.13 10857.19,16726.35 10832.21,16713.12 10791.04,16696.21 "/>
  <g>
   <path class="fil0" d="M6879.63 16724.12l8.81 8.84 8.81 0 -8.81 -8.84 -8.81 0 0 0zm7284.85 97.03l20.58 16.9 13.97 -3.67 19.85 0 38.2 -13.97 39.69 -25.72 -20.58 -16.91 -13.97 3.68 -19.85 0 -38.2 13.97 -39.69 25.72 0 0zm-1613.96 26.45l0 185.21 0 52.92 -0.74 26.46 -1.46 26.46 -8.09 52.91 -5.88 26.46 -8.09 52.92 -1.46 26.46 -0.74 52.91 0 24.98 0 80.86 30.14 -20.59 5.13 -13.97 10.29 -21.3 4.42 -24.26 2.2 -25.72 0.74 -26.46 0 -52.91 0 -52.92 0 -79.37 0 -79.38 0 -52.92 0 -52.91 -0.74 -25.72 -0.74 -24.26 -5.14 -21.3 -0.74 -13.97 -19.1 -20.59z"/>
  </g>
  <polygon class="fil0" points="9191.35,17196.87 9256.55,17206.19 9456.77,17112.74 9597.19,17044.25 9931.4,16869.64 9887.91,16853.7 9702.85,16942.3 9548.79,17016.56 "/>
  <polygon class="fil0" points="8608.23,17138.65 8608.23,17376.77 8627.33,17356.19 8628.07,17342.22 8633.21,17320.92 8633.95,17296.65 8634.69,17244.48 8633.21,17194.5 8628.07,17173.2 8627.33,17159.23 "/>
  <polygon class="fil2" points="9269.69,17482.6 9296.15,17509.06 "/>
  <polygon class="fil0" points="9772.4,17482.6 9798.85,17509.06 "/>
  <polygon class="fil0" points="9984.06,17535.52 10010.52,17561.98 "/>
  <polygon class="fil0" points="9190.31,17588.44 9216.77,17614.9 "/>
  <g>
   <path class="fil0" d="M12127.19 17588.44l26.46 26.46 -26.46 -26.46 0 0zm238.12 0l26.46 26.46 -26.46 -26.46z"/>
  </g>
  <polygon class="fil0" points="10460.31,17667.81 10486.77,17694.27 "/>
  <g>
   <path class="fil2" d="M12074.27 17667.81l26.46 26.46 -26.46 -26.46 0 0zm-5485.68 35.27l0 8.84 17.62 0 -8.81 -8.84 -8.81 0z"/>
  </g>
  <polygon class="fil0" points="9243.23,17694.27 9269.69,17720.73 "/>
  <polygon class="fil1" points="9243.23,17720.73 9252.04,17774.39 9262.33,17798.62 9299.08,17833.18 9323.34,17841.27 9348.32,17841.27 9372.58,17833.18 9409.33,17798.62 9419.63,17774.39 9428.44,17720.73 9388.75,17701.63 9374.04,17700.89 9347.58,17696.47 9297.63,17700.89 9282.92,17701.63 "/>
  <g>
   <path class="fil2" d="M10513.23 17694.27l26.46 26.46 -26.46 -26.46 0 0zm1693.33 0l26.46 26.46 -26.46 -26.46z"/>
  </g>
  <polygon class="fil0" points="10539.69,17720.73 10566.15,17747.19 "/>
  <polygon class="fil0" points="11862.6,17720.73 11889.06,17747.19 "/>
  <polygon class="fil2" points="12047.81,17720.73 12074.27,17747.19 "/>
  <g>
   <path class="fil2" d="M11915.52 17747.19l26.46 26.46 -26.46 -26.46 0 0zm-767.29 26.46l26.46 26.45 -26.46 -26.45z"/>
  </g>
  <polygon class="fil0" points="11412.81,17773.65 11439.27,17800.1 "/>
  <g>
   <path class="fil2" d="M11703.85 17773.65l26.46 26.45 -26.46 -26.45 0 0zm238.13 0l26.46 26.45 -26.46 -26.45 0 0zm79.37 0l26.46 26.45 -26.46 -26.45 0 0zm-4921.25 26.45l26.46 26.46 -26.46 -26.46 0 0zm2143.13 0l26.46 26.46 -26.46 -26.46z"/>
  </g>
  <g>
   <path class="fil0" d="M9401.98 17800.1l26.46 26.46 -26.46 -26.46 0 0zm1666.87 0l26.46 26.46 -26.46 -26.46 0 0zm291.05 0l26.45 26.46 -26.45 -26.46z"/>
  </g>
  <polygon class="fil1" points="6756.15,17826.56 6756.15,18091.15 6795.83,18090.4 6837,18084.53 6861.98,18077.92 6887.7,18066.17 6911.96,18051.46 6948.71,18009.57 6962.68,17958.85 6954.58,17908.13 6928.12,17866.25 6886.24,17839.79 6861.24,17833.18 6837,17828.76 6795.83,17826.56 "/>
  <g>
   <path class="fil0" d="M9269.69 17826.56l26.46 26.46 -26.46 -26.46 0 0zm105.83 0l26.46 26.46 -26.46 -26.46z"/>
  </g>
  <polygon class="fil2" points="10963.02,17826.56 10989.48,17853.02 "/>
  <g>
   <path class="fil0" d="M10989.48 17826.56l26.46 26.46 -26.46 -26.46 0 0zm687.92 0l26.45 26.46 -26.45 -26.46z"/>
  </g>
  <polygon class="fil2" points="7135.37,17870.67 7135.37,17879.48 7144.21,17888.29 7144.21,17879.48 "/>
  <g>
   <path class="fil0" d="M10619.06 17853.02l26.46 26.46 -26.46 -26.46 0 0zm264.59 0l26.45 26.46 -26.45 -26.46 0 0zm1111.25 0l26.45 26.46 -26.45 -26.46z"/>
  </g>
  <g>
   <path class="fil2" d="M13661.77 17853.02l26.46 26.46 -26.46 -26.46 0 0zm-6720.42 26.46l26.46 26.46 -26.46 -26.46z"/>
  </g>
  <g>
   <path class="fil0" d="M9110.94 17879.48l26.46 26.46 -26.46 -26.46 0 0zm1719.79 0l26.46 26.46 -26.46 -26.46 0 0zm291.04 0l26.46 26.46 -26.46 -26.46z"/>
  </g>
  <g>
   <path class="fil0" d="M11306.98 17879.48l26.46 26.46 -26.46 -26.46 0 0zm343.96 0l26.46 26.46 -26.46 -26.46 0 0zm1878.54 0l26.46 26.46 -26.46 -26.46 0 0zm158.75 0l26.46 26.46 -26.46 -26.46z"/>
  </g>
  <g>
   <path class="fil2" d="M10433.85 18752.6l26.46 26.46 -26.46 -26.46 0 0zm-899.58 26.46l26.46 26.46 -26.46 -26.46 0 0zm2672.29 0l26.46 26.46 -26.46 -26.46 0 0zm-2566.46 26.46l26.46 26.46 -26.46 -26.46 0 0zm105.84 26.46l26.46 26.46 -26.46 -26.46 0 0zm105.83 26.46l26.46 26.46 -26.46 -26.46z"/>
  </g>
  <g>
   <path class="fil0" d="M9957.6 18884.9l26.46 26.45 -26.46 -26.45 0 0zm343.96 0l26.46 26.45 -26.46 -26.45z"/>
  </g>
  <polygon class="fil2" points="10063.44,18911.35 10089.9,18937.81 "/>
  <polygon class="fil0" points="10222.19,18911.35 10248.65,18937.81 "/>
  <polygon class="fil3" points="10662.27,18782.03 10576.47,18800.97 10525.04,18800.97 10498.58,18800.97 10445.66,18798.77 10419.2,18794.35 10392.75,18787.74 10339.83,18761.28 10289.11,18719.4 10267.07,18694.39 10246.48,18668.68 10214.89,18615.76 10203.86,18589.3 10193.57,18562.84 10185.5,18509.93 10188.43,18483.47 10193.57,18457.01 10214.89,18404.09 10230.32,18377.64 10246.48,18351.18 10289.11,18300.46 10339.83,18258.57 10392.75,18232.12 10445.66,18221.08 10498.58,18219.63 10525.04,18221.82 10551.5,18227.7 10577.95,18237.99 10609.78,18252.5 10658.85,18295.28 10700.33,18346.81 10714.6,18375.61 10722.73,18390.87 10736.7,18430.55 10752.17,18429.77 10760.6,18397.24 10767.58,18374.7 10772.71,18350.44 10779.33,18324.72 10787.42,18271.8 10787.42,18218.89 10778.59,18165.97 10760.23,18113.05 10746.26,18086.59 10728.61,18060.88 10707.31,18035.87 10657.33,17993.25 10630.87,17977.08 10604.41,17961.66 10551.5,17940.33 10525.04,17933.72 10498.58,17927.84 10445.66,17916.81 10419.2,17909.48 10366.29,17893.29 10339.83,17885.22 10286.91,17871.25 10260.45,17865.38 10234,17858.02 10207.54,17852.15 10181.08,17844.79 10128.16,17831.56 10101.7,17825.69 10075.25,17818.33 10048.79,17812.46 10022.33,17805.1 9995.87,17799.23 9942.95,17785.26 9916.5,17777.19 9863.58,17761 9837.12,17752.93 9784.2,17738.96 9757.75,17733.08 9731.29,17726.47 9678.37,17718.37 9625.45,17716.18 9572.54,17718.37 9519.62,17729.41 9493.16,17741.15 9440.99,17775.71 9393.94,17822.75 9374.1,17848.47 9358.67,17874.93 9345.45,17901.39 9335.15,17927.84 9318.25,17980.76 9311.63,18007.22 9298.4,18060.14 9291.05,18086.59 9285.17,18113.05 9271.94,18165.97 9264.59,18192.43 9258.72,18218.89 9244.75,18271.8 9236.68,18298.26 9228.58,18324.72 9213.15,18377.64 9202.12,18430.55 9191.83,18483.47 9179.34,18536.39 9171.98,18562.84 9166.11,18589.3 9159.5,18615.76 9151.4,18668.68 9150.69,18695.14 9155.08,18748.05 9160.24,18774.51 9178.6,18827.43 9210.22,18879.6 9231.52,18904.61 9281.5,18946.49 9334.41,18975.14 9360.87,18985.44 9413.79,19003.83 9440.25,19012.64 9493.16,19028.06 9546.08,19039.09 9599,19050.13 9625.45,19057.46 9678.37,19073.65 9704.83,19081.72 9757.75,19095.69 9784.2,19101.56 9837.12,19114.79 9863.58,19122.15 9890.04,19128.02 9916.5,19135.38 9942.95,19141.25 9995.87,19154.48 10022.33,19161.83 10048.79,19167.71 10075.25,19175.06 10101.7,19180.94 10128.16,19188.29 10154.62,19194.17 10207.54,19207.4 10234,19214.01 10286.91,19221.37 10339.83,19218.43 10366.29,19213.27 10419.2,19197.1 10472.12,19173.58 10497.84,19158.16 10544.88,19116.27 10564.72,19091.27 10591.92,19039.09 10599.99,19012.64 10608.09,18986.18 10613.96,18959.72 10627.19,18906.8 10634.55,18881.83 10641.16,18855.37 "/>
  <g>
   <path class="fil0" d="M9413.79 17769.09l26.46 26.46 -26.46 -26.46 0 0zm502.71 0l26.45 26.46 -26.45 -26.46 0 0zm-529.17 26.46l26.46 26.46 -26.46 -26.46 0 0zm740.83 26.46l26.46 26.46 -26.46 -26.46z"/>
  </g>
  <polygon class="fil3" points="12324.2,17822.01 12296.26,17861.7 12287.45,17876.41 12255.12,17927.84 12224.99,17980.76 12212.5,18007.22 12198.53,18033.68 12187.49,18060.14 12175.75,18086.59 12155.16,18139.51 12133.86,18192.43 12122.83,18218.89 12113.28,18245.34 12103.73,18271.8 12086.08,18324.72 12077.98,18351.18 12069.91,18377.64 12055.94,18430.55 12050.07,18457.01 12042.71,18483.47 12029.48,18536.39 12023.61,18562.84 12016.26,18589.3 12003.03,18642.22 11997.15,18668.68 11989.8,18695.14 11983.92,18721.59 11976.57,18748.05 11964.08,18800.97 11955.98,18852.4 11954.53,18878.86 11953.79,18933.26 11980.25,18959.72 12086.08,18959.72 12092.69,18920.03 12097.11,18905.32 12104.44,18878.86 12121.35,18828.91 12127.25,18814.2 12139,18774.51 12191.91,18774.51 12199.27,18814.2 12216.17,18855.37 12229.4,18880.34 12261,18933.26 12276.42,18959.72 12310.23,19012.64 12352.86,19062.62 12403.58,19099.37 12456.5,19112.6 12507.22,19099.37 12549.1,19064.07 12564.53,19039.84 12588.79,18986.18 12535.87,18992.79 12521.16,18993.53 12482.95,19012.64 12462.37,18972.95 12448.4,18958.24 12427.84,18931.78 12405.06,18906.8 12363.15,18853.89 12331.56,18800.97 12319.79,18774.51 12308.04,18748.05 12288.94,18695.14 12280.84,18670.16 12270.55,18643.7 12266.15,18628.99 12244.83,18589.3 12273.48,18568.72 12282.32,18556.23 12303.62,18534.9 12350.66,18483.47 12333.01,18521.68 12315.39,18551.1 12297.75,18589.3 12350.66,18604.73 12377.12,18609.89 12390.35,18613.56 12430.04,18615.76 12455.76,18576.07 12471.21,18534.9 12480.76,18484.95 12482.95,18430.55 12428.56,18400.42 12402.1,18390.12 12350.66,18388.67 12298.49,18412.9 12273.48,18433.49 12228.66,18483.47 12187.49,18534.9 12176.49,18549.62 12139,18589.3 12145.61,18549.62 12155.9,18508.45 12169.13,18457.01 12175.75,18430.55 12183.82,18404.09 12200.72,18351.18 12219.11,18298.26 12228.66,18271.8 12240.41,18245.34 12251.44,18218.89 12277.16,18165.97 12291.87,18139.51 12303.62,18113.05 12330.82,18060.14 12360.21,18007.22 12374.92,17982.24 12386.67,17955.78 12394.77,17941.07 12403.58,17901.39 12456.5,17916.81 12482.95,17921.97 12496.18,17925.65 12535.87,17927.84 12515.29,17888.9 12480.02,17855.82 12430.04,17830.82 12405.06,17824.95 12363.89,17822.01 "/>
  <polygon class="fil4" points="9387.33,18113.05 9441.73,18127.76 9468.19,18130.7 9492.42,18128.48 9537.27,18104.24 9560.79,18059.39 9560.79,18034.42 9552.69,18010.16 9516.68,17974.15 9492.42,17966.05 9443.18,17974.15 9422.6,17989.57 9396.14,18032.94 9390.27,18058.65 "/>
  <g>
   <path class="fil0" d="M10604.41 17954.3l26.46 26.46 -26.46 -26.46 0 0zm1613.96 0l26.46 26.46 -26.46 -26.46z"/>
  </g>
  <polygon class="fil5" points="6715.04,18007.22 6715.04,18800.97 6900.25,18800.97 6900.25,18509.93 6954.64,18509.93 6981.1,18509.93 7032.54,18507.73 7085.45,18498.89 7111.91,18490.82 7164.83,18466.56 7214.81,18427.62 7235.39,18403.35 7252.3,18377.64 7273.6,18324.72 7286.09,18271.8 7289.02,18245.34 7289.02,18218.89 7285.37,18192.43 7269.92,18139.51 7246.4,18088.79 7230.97,18066.75 7211.13,18046.17 7189.09,18030 7164.09,18014.57 7111.91,17993.25 7059,17982.96 7032.54,17981.5 6979.62,17980.76 6953.16,17980.76 6900.25,17980.76 6873.79,17980.76 6820.87,17982.96 6795.89,17986.63 6769.44,17991.79 "/>
  <g>
   <path class="fil0" d="M9387.33 17980.76l26.46 26.46 -26.46 -26.46 0 0zm1270 0l26.46 26.46 -26.46 -26.46 0 0zm1693.33 0l26.46 26.46 -26.46 -26.46 0 0zm-1666.87 26.46l26.46 26.46 -26.46 -26.46z"/>
  </g>
  <polygon class="fil3" points="10974.83,18192.43 10977.03,18246.83 10987.32,18298.26 11008.64,18348.24 11038.78,18384.99 11059.34,18395.28 11107.12,18404.09 11100.51,18351.18 11099.77,18336.47 11080.66,18298.26 11120.35,18278.42 11135.06,18265.93 11161.52,18249.02 11186.5,18230.63 11237.93,18199.78 11279.1,18179.2 11318.79,18165.97 11311.43,18205.66 11296.01,18246.83 11285.71,18271.8 11272.49,18298.26 11251.16,18351.18 11243.83,18377.64 11235.73,18404.09 11229.86,18430.55 11216.63,18483.47 11203.4,18536.39 11196.79,18562.84 11188.69,18615.76 11186.5,18668.68 11186.5,18721.59 11186.5,18773.03 11186.5,18853.89 11240.89,18892.09 11292.33,18926.65 11318.79,18941.36 11371.7,18956.04 11398.16,18956.04 11450.34,18940.62 11475.34,18924.45 11520.16,18879.6 11540.01,18853.89 11578.95,18800.97 11597.34,18775.99 11612.03,18749.53 11622.32,18734.82 11636.29,18695.14 11644.38,18734.82 11640.71,18749.53 11637.77,18800.97 11636.29,18852.4 11636.29,18878.86 11636.29,18933.26 11690.69,18948.69 11740.64,18957.52 11795.04,18959.72 11797.23,18920.03 11806.07,18878.86 11821.5,18827.43 11829.59,18800.97 11836.21,18775.25 11838.4,18730.4 11825.17,18704.69 11795.04,18695.14 11810.46,18640.74 11821.5,18589.3 11832.53,18536.39 11839.86,18509.93 11856.76,18457.01 11865.6,18430.55 11884.7,18377.64 11895.74,18351.18 11917.04,18298.26 11937.62,18245.34 11961.14,18192.43 11976.57,18166.71 11992.73,18142.45 12032.42,18104.24 12052.27,18088.79 12065.49,18082.18 12086.08,18060.14 12046.39,18034.42 12005.22,18018.97 11955.27,18009.42 11900.87,18007.22 11874.41,18046.91 11868.54,18061.62 11853.09,18088.08 11842.08,18113.05 11827.37,18139.51 11815.62,18165.97 11789.16,18218.89 11774.45,18245.34 11762.71,18271.8 11747.99,18298.26 11736.25,18324.72 11721.54,18351.18 11709.05,18377.64 11678.91,18430.55 11646.58,18483.47 11614.96,18536.39 11599.54,18562.84 11582.63,18589.3 11565.72,18615.76 11530.45,18668.68 11493.7,18721.59 11473.86,18748.05 11455.5,18774.51 11437.11,18799.49 11422.42,18825.95 11412.13,18840.66 11398.16,18880.34 11345.25,18880.34 11318.79,18853.89 11318.79,18773.03 11318.79,18721.59 11319.53,18668.68 11320.98,18642.22 11329.08,18589.3 11335.69,18562.84 11348.92,18509.93 11355.54,18483.47 11371.7,18430.55 11389.35,18377.64 11408.45,18324.72 11419.49,18298.26 11441.53,18245.34 11452.56,18218.89 11479.73,18166.71 11495.9,18141.71 11527.52,18098.34 11540.01,18077.78 11548.1,18066.75 11556.91,18033.68 11517.23,18014.57 11476.06,18009.42 11424.62,18015.32 11398.16,18024.13 11371.7,18035.87 11345.25,18049.84 11292.33,18075.56 11265.87,18085.85 11212.95,18104.24 11186.5,18113.05 11133.58,18129.22 11080.66,18143.93 11055.69,18150.54 11029.23,18162.29 11014.52,18166.71 "/>
  <polygon class="fil6" points="6900.25,18113.05 6900.25,18377.64 6954.64,18376.89 6981.1,18375.44 7030.34,18364.41 7072.22,18337.95 7098.68,18296.06 7109.72,18246.83 7111.91,18205.66 7111.91,18165.97 7072.22,18140.25 7057.51,18135.83 7031.06,18124.8 6981.1,18115.25 6954.64,18113.79 "/>
  <polygon class="fil3" points="13700.04,18139.51 13680.93,18171.1 13666.96,18181.39 13620.66,18218.89 13641.25,18249.02 13676.52,18263.71 13700.78,18266.67 13751.47,18260.05 13792.64,18244.6 13832.33,18218.89 13832.33,18165.97 13805.87,18139.51 "/>
  <g>
   <path class="fil5" d="M7402.95 18218.89l0 185.2 0 52.92 0 26.46 0 52.92 2.2 52.91 3.68 26.46 5.16 26.46 18.36 52.17 13.97 25.01 38.95 41.88 49.98 26.46 52.91 10.29 26.46 0 52.92 -10.29 24.97 -10.29 41.17 -23.52 39.69 -32.34 2.94 36.75 16.16 24.98 36.75 14.71 22.79 2.2 25.71 0.74 54.4 0 0 -582.08 -185.21 0 0 185.2 0 52.92 0 26.46 -0.74 26.46 -2.19 26.46 -5.16 26.45 -19.11 51.44 -8.07 14.71 -17.64 39.69 -52.92 0 -17.65 -39.69 -8.07 -14.71 -19.1 -51.44 -5.16 -26.45 -2.2 -26.46 -0.74 -26.46 0 -26.46 0 -52.92 0 -185.2 -185.21 0 0 0zm687.92 0l0 582.08 185.21 0 0 -132.29 0 -52.92 0 -52.92 0.74 -26.45 2.2 -26.46 5.87 -26.46 26.46 -49.98 43.36 -36.75 40.43 -16.17 39.69 -2.93 0 -158.75 -39.69 2.19 -40.43 11.04 -43.36 24.97 -25.72 30.14 -9.55 37.49 -19.1 -38.21 -0.74 -14.71 -6.62 -52.91 -158.75 0z"/>
  </g>
  <polygon class="fil5" points="8990.45,18774.51 8988.97,18721.59 8983.84,18695.14 8983.1,18681.91 8964,18642.22 8909.6,18657.64 8858.16,18666.48 8805.25,18666.48 8752.33,18655.45 8702.35,18630.47 8667.08,18600.34 8646.5,18562.84 9016.91,18562.84 9016.91,18508.45 9016.17,18457.01 9010.3,18404.09 9003.68,18377.64 8977.22,18325.46 8935.34,18280.61 8910.34,18263.71 8858.16,18242.41 8805.25,18229.92 8778.79,18226.98 8725.87,18229.92 8699.41,18235.79 8672.95,18241.67 8646.5,18249.76 8620.78,18257.83 8572.99,18285.03 8533.31,18326.92 8517.14,18351.92 8504.65,18377.64 8490.68,18430.55 8488.49,18457.01 8487.75,18509.93 8487.75,18536.39 8489.94,18589.3 8500.97,18642.22 8527.43,18692.94 8547.28,18714.98 8569.32,18735.56 8620.04,18767.16 8672.95,18788.48 8725.87,18798.77 8778.79,18800.97 8831.7,18800.97 8884.62,18798.77 8936.06,18789.94 "/>
  <g>
   <path class="fil4" d="M9387.33 18218.89l0 582.08 185.21 0 0 -582.08 -185.21 0 0 0zm714.37 555.62l0 -132.29 -54.39 15.42 -51.44 5.9 -52.92 -13.97 -25.71 -16.16 -24.27 -20.59 -20.58 -24.26 -16.17 -25.72 -13.23 -52.91 13.23 -52.92 16.17 -25.72 44.85 -44.84 52.17 -26.46 26.46 -5.88 24.98 -2.19 26.46 -0.74 54.39 0 0 -105.84 -26.45 -26.45 -80.86 0 -24.98 0 -52.91 2.19 -52.92 11.04 -26.46 11.03 -26.46 13.23 -50.72 33.78 -44.08 40.43 -18.39 22.78 -28.65 50.72 -13.97 52.92 -0.74 52.92 3.68 26.46 11.03 52.91 6.61 26.46 21.3 52.18 16.91 25 44.85 41.88 52.17 27.2 26.46 8.07 26.46 8.1 52.92 12.49 52.91 7.35 26.46 0 24.98 -2.93 26.46 -5.16 54.39 -15.43z"/>
  </g>
  <polygon class="fil4" points="8646.5,18457.01 8876.28,18455.56 8859.5,18400.45 8839.79,18368.24 8811.01,18343.11 8753.07,18334.27 8728.07,18338.69 8686.18,18364.41 8671.47,18382.77 8653.85,18418.06 "/>
  <polygon class="fil3" points="10366.29,18430.55 10612.82,18429.46 10592.11,18388.84 10556.74,18357.67 10511.81,18351.18 10470.64,18354.11 10422.14,18368.83 10386.87,18393.8 "/>
  <g>
   <path class="fil0" d="M11001.29 18351.18l26.46 26.46 -26.46 -26.46 0 0zm873.12 0l26.46 26.46 -26.46 -26.46 0 0zm185.21 0l26.46 26.46 -26.46 -26.46 0 0zm-1852.08 26.46l26.46 26.45 -26.46 -26.45 0 0zm343.96 0l26.45 26.45 -26.45 -26.45 0 0zm158.75 0l26.45 26.45 -26.45 -26.45 0 0zm661.45 0l26.46 26.45 -26.46 -26.45 0 0zm317.5 0l26.46 26.45 -26.46 -26.45 0 0zm608.55 0l26.45 26.45 -26.45 -26.45 0 0zm105.83 0l26.46 26.45 -26.46 -26.45z"/>
  </g>
  <g>
   <path class="fil3" d="M12800.45 18430.55l-54.39 -15.42 -49.96 -8.84 -26.46 -1.45 -54.39 -0.75 -18.37 39.69 -10.29 14.71 -15.45 24.98 -28.65 39.69 -33.08 39.68 23.52 38.95 11.04 42.63 -0.74 25 -2.94 25.72 -9.55 52.91 -5.16 26.46 -5.88 26.46 -7.35 52.92 -0.74 24.97 5.16 41.17 19.1 39.69 79.38 0 21.32 -39.69 4.39 -14.71 10.3 -26.46 8.09 -24.97 19.1 -52.92 22.79 -52.92 13.97 -26.46 26.45 -52.91 11.75 -26.46 13.97 -24.98 11.03 -26.46 8.82 -14.71 13.22 -39.68 28.66 36.75 30.13 24.97 34.56 14.71 38.95 2.94 2.19 -39.69 3.68 -14.71 10.29 -51.43 8.1 -51.44 2.19 -54.4 -54.39 -15.42 -48.5 -5.9 -20.59 2.96 -25.71 14.69 -9.56 30.13 0 0zm105.84 502.71l54.4 14.71 26.45 3.65 24.98 -0.71 52.92 -16.17 50.72 -34.55 44.82 -47.05 41.17 -50.69 11 -14.71 37.5 -39.69 -6.62 39.69 -9.55 41.17 -8.1 49.95 -2.19 54.4 26.46 26.46 105.83 0 6.61 -39.69 12.49 -41.17 9.55 -24.97 23.53 -51.44 11.03 -26.46 7.35 -14.71 8.81 -39.69 -52.91 0 11.75 -39.68 5.9 -14.71 8.81 -26.46 8.81 -24.98 8.83 -26.46 16.91 -51.43 7.33 -26.46 4.42 -14.71 6.61 -39.69 -39.68 -19.84 -14.72 -2.94 -51.43 -19.1 -26.46 -11.04 -26.46 -10.29 -26.46 -8.07 -52.91 -4.42 -26.46 5.14 -52.18 26.45 -25 20.59 -44.08 49.98 -19.13 26.46 -34.53 52.91 -15.42 26.46 -30.88 52.92 -14.71 26.46 -12.49 26.46 -19.1 52.91 -6.62 26.46 -6.61 26.46 -8.1 51.43 -1.45 26.46 -0.74 54.4z"/>
  </g>
  <polygon class="fil0" points="13567.75,18377.64 13594.2,18404.09 "/>
  <polygon class="fil3" points="13514.83,18483.47 13559.65,18502.57 13574.36,18518.74 13580.98,18563.59 13577.3,18589.3 13567.75,18642.22 13556.71,18695.14 13541.29,18748.05 13532.48,18774.51 13514.83,18827.43 13499.4,18878.86 13494.24,18905.32 13490.57,18920.03 13488.37,18959.72 13594.2,18959.72 13616.24,18920.03 13622.14,18905.32 13648.6,18853.89 13663.29,18827.43 13684.61,18774.51 13689.75,18721.59 13689,18695.14 13694.16,18642.22 13700.78,18615.76 13708.13,18589.3 13720.62,18536.39 13724.3,18509.93 13726.5,18458.49 13726.5,18404.09 13700.04,18377.64 13660.35,18378.38 13619.18,18386.45 13570.68,18411.45 13535.41,18444.52 "/>
  <polygon class="fil0" points="13700.04,18377.64 13726.5,18404.09 "/>
  <polygon class="fil3" points="13885.25,18377.64 13857.31,18417.32 13833.07,18457.01 13824.23,18470.24 13805.87,18509.93 13850.69,18529.03 13865.4,18545.2 13872.02,18590.04 13862.47,18642.22 13855.11,18668.68 13848.5,18695.14 13840.43,18721.59 13822.04,18774.51 13811,18800.97 13791.9,18852.4 13786.77,18867.12 13779.41,18906.8 13819.1,18925.91 13832.33,18926.65 13858.79,18931.78 13911.7,18933.26 13924.93,18893.57 13933.74,18878.86 13944.78,18852.4 13958.75,18827.43 13970.49,18800.97 13997.69,18748.05 14013.12,18721.59 14027.83,18695.14 14061.64,18642.22 14096.91,18589.3 14115.27,18563.59 14132.92,18539.32 14154.25,18518.02 14165.25,18504.05 14202.75,18483.47 14202.01,18523.16 14196.87,18564.33 14191.71,18589.3 14184.38,18615.76 14168.19,18668.68 14160.12,18695.14 14153.51,18721.59 14139.54,18774.51 14131.47,18800.97 14115.27,18853.89 14107.95,18878.86 14099.11,18920.03 14096.91,18959.72 14202.75,18959.72 14224.79,18920.03 14230.69,18905.32 14257.14,18853.89 14272.57,18827.43 14301.22,18774.51 14311.52,18748.05 14320.33,18721.59 14323.29,18668.68 14320.33,18642.22 14321.07,18589.3 14325.49,18562.84 14332.1,18509.93 14326.23,18457.75 14315.93,18433.49 14279.18,18396.74 14254.92,18386.45 14229.2,18381.31 14202.75,18381.31 14150.57,18396.74 14102.79,18432.75 14082.2,18454.81 14061.64,18475.37 14050.61,18489.34 14017.54,18509.93 14017.54,18483.47 14044,18430.55 14004.31,18400.42 13964.62,18384.99 13924.93,18378.38 "/>
  <polygon class="fil3" points="14387.95,18615.76 14392.37,18648.83 14391.63,18680.43 14389.44,18701.01 14383.54,18723.79 14378.4,18748.79 14371.79,18774.51 14366.63,18827.43 14380.6,18878.15 14417.35,18920.03 14467.33,18946.49 14520.25,18954.59 14573.16,18940.62 14599.62,18924.45 14652.54,18879.6 14678.26,18853.89 14723.1,18802.45 14748.82,18761.28 14758.37,18721.59 14719.42,18728.95 14683.41,18745.86 14662.83,18759.09 14620.21,18792.87 14597.42,18811.26 14548.19,18847.27 14521.73,18861.98 14507.02,18870.79 14467.33,18880.34 14482.75,18825.95 14491.59,18775.99 14493.05,18749.53 14493.79,18695.14 14520.25,18668.68 14574.64,18668.68 14626.08,18666.48 14677.51,18656.93 14718.68,18641.48 14758.37,18615.76 14758.37,18561.36 14758.37,18534.9 14760.57,18483.47 14764.24,18458.49 14769.4,18432.03 14784.83,18377.64 14703.97,18377.64 14679,18377.64 14626.08,18380.57 14573.9,18396.74 14526.86,18433.49 14506.28,18457.75 14473.94,18509.93 14460.71,18535.64 14429.84,18581.21 14420.29,18595.18 "/>
  <polygon class="fil4" points="13012.12,18853.89 13049.61,18844.33 13060.62,18834.78 13082.69,18818.62 13101.79,18798.03 13123.09,18773.77 13165.74,18721.59 13206.88,18668.68 13227.47,18642.22 13245.83,18615.76 13264.96,18589.3 13295.81,18537.87 13307.58,18511.41 13316.39,18496.7 13329.62,18457.01 13289.93,18459.95 13249.51,18476.11 13203.2,18512.86 13162.77,18562.84 13128.25,18615.76 13098.11,18668.68 13085.62,18695.14 13059.16,18748.05 13045.19,18773.03 13034.16,18799.49 13025.35,18814.2 "/>
  <polygon class="fil6" points="12324.2,18483.47 12350.66,18509.93 "/>
  <polygon class="fil4" points="14626.08,18483.47 14598.14,18523.16 14574.64,18562.84 14563.61,18587.82 14555.51,18602.53 14546.7,18642.22 14585.65,18632.67 14618.72,18606.95 14633.43,18586.37 14648.12,18539.32 14645.18,18504.05 "/>
  <polygon class="fil3" points="10366.29,18562.84 10386.87,18601.79 10422.14,18634.86 10446.4,18649.57 10498.58,18665.74 10551.5,18666.48 10604.41,18658.39 10655.85,18648.09 10670.56,18644.42 10700.71,18631.73 10719.63,18562.11 "/>
  <polygon class="fil1" points="10804.27,16667.53 10830.73,16683.34 10830.73,16683.34 10849.96,16694.82 10849.96,16694.82 10883.64,16715.31 10904.39,16727.99 10938.38,16691.12 10878.34,16652.12 10835.67,16638.74 10818.76,16627.55 10789,16611.15 10731.83,16570.49 10680.67,16525.77 10660.15,16502.52 10640.37,16479.14 10624.19,16455.14 10594.02,16406.72 10568.91,16357.41 10551.02,16306.84 10539.67,16255.11 10535.08,16229.05 10528.04,16176.55 10527.07,16149.85 10526.83,16123.04 10527.78,16069.14 10523.64,16016.13 10515.92,15963.76 10512.75,15937.45 10511.54,15883.93 10512.72,15856.83 10511.51,15803.34 10508.35,15777.03 10504.48,15750.85 10496.02,15698.6 10492.87,15672.3 10491.65,15618.78 10492.84,15591.7 10491.63,15538.18 10488.46,15511.88 10482.17,15459.25 10481.2,15432.55 10482.14,15378.65 10482.63,15351.71 10483.54,15297.81 10484.03,15270.85 10485.96,15243.65 10487.14,15216.57 10493.15,15161.78 10498.69,15133.94 10508.34,15078.5 10510.96,15051.17 10514.34,15023.72 10516.26,14996.51 10523.72,14941.46 10535.5,14885.64 10542.51,14857.55 10563.7,14800.08 10577.22,14770.83 10601.32,14712.84 10611.19,14684.24 10620.35,14655.76 10634.59,14601.01 10637.94,14573.55 10640.47,14558.17 10636.47,14518.59 10598.66,14532.72 10585.19,14541.06 10539.14,14576.04 10496.46,14626.1 10463.28,14683.45 10441.36,14741.04 10435.09,14769.02 10428.83,14796.99 10422.82,14851.79 10421.63,14878.85 10418.98,14906.19 10417.79,14933.27 10413.23,14987.81 10409.87,15015.27 10406.49,15042.73 10400.49,15097.52 10400.98,15151.17 10404.13,15177.48 10412.59,15229.7 10421.78,15281.83 10428.81,15334.33 10429.78,15361.02 10428.84,15414.92 10429.08,15441.74 10430.05,15468.44 10434.92,15521.32 10435.89,15548.03 10434.94,15601.91 10436.15,15655.43 10439.32,15681.74 10445.61,15734.36 10446.84,15787.88 10445.64,15814.96 10446.86,15868.47 10450.02,15894.78 10458.48,15947.02 10466.94,15999.27 10470.09,16025.57 10471.32,16079.09 10470.12,16106.17 10471.34,16159.69 10474.5,16185.99 10478.36,16212.18 10487.55,16264.3 10515.12,16420.63 10629.82,16536.92 10693.36,16594.16 10751.35,16634.84 10777.81,16652.13 10804.27,16667.53 10791.04,16659.83 10804.27,16667.53 "/>
  <g>
   <path class="fil1" d="M8555.31 15154.27l-15.42 54.4 -5.16 26.46 -3.68 24.97 -2.2 52.92 0 26.46 2.2 52.92 8.1 51.43 9.55 41.17 6.61 39.69 25.72 -20.59 5.16 -13.97 12.49 -21.3 9.55 -24.26 22.04 -52.17 11.77 -26.46 14.69 -26.46 14.71 -26.46 34.53 -52.17 18.38 -25.01 38.95 -44.08 38.95 -35.29 11.03 -10.3 33.07 -18.36 -20.58 -18.36 -13.97 0.71 -45.56 4.42 -52.18 17.65 -26.46 9.55 -51.43 10.29 -41.17 2.2 -39.69 0 0 0zm3810 26.46l20.59 39.69 13.23 14.71 19.84 26.46 39.69 51.43 32.33 52.92 12.49 26.46 26.46 52.91 14.71 25.72 11 24.26 15.46 21.3 5.87 13.97 26.46 20.59 19.1 -39.69 0.74 -14.71 5.13 -26.46 0.75 -24.98 0.74 -52.91 0 -52.92 0 -105.83 -39.69 -11.75 -14.71 -5.9 -26.46 -8.81 -51.44 -15.43 -51.43 -8.83 -41.17 -2.2 -39.69 0z"/>
  </g>
 </g>
</svg>
